<svg xmlns="http://www.w3.org/2000/svg" width="68" height="68" fill="none"><path stroke="#C6C6C6" d="M.5 34C.5 15.499 15.499.5 34 .5 52.502.5 67.5 15.499 67.5 34c0 18.502-14.998 33.5-33.5 33.5C15.499 67.5.5 52.502.5 34Z"/><path stroke="#0D0D0D" stroke-linecap="round" stroke-linejoin="round" stroke-width="1.5" d="m31 30.25-7.087-7.537c-.627-.676-.527-1.17.213-1.599 1.39-.804 2.474-.826 3.94-.021l7.357 4.037c.524.288 1.038.579 1.577.738M34.75 36.495l3.166 10.21c.258.833.713.985 1.418.58 1.325-.76 1.86-1.637 1.896-3.219l.18-7.936c.023-1.06.019-2.098.84-2.88"/><path stroke="#0D0D0D" stroke-linecap="round" stroke-linejoin="round" stroke-width="1.5" d="m28.493 32.476 2.83-2.068 6.634-4.836.005-.004.012-.009c.156-.114 2.49-1.815 3.814-2.395 1.627-.713 3.142-.382 4.773.074.843.235 1.265.353 1.57.573.482.348.796.885.86 1.472.041.37-.066.789-.281 1.627-.416 1.621-.883 3.082-2.322 4.116-1.17.842-3.831 1.985-4.01 2.062l-.012.005-.007.003-7.561 3.25-3.23 1.385c-1.172.502-1.758.753-2.156 1.22-.933 1.09-1.065 3.065-1.413 4.423-.192.75-1.248 2.052-2.188 1.856-.58-.12-.592-.847-.664-1.31l-.696-4.462c-.166-1.067-.179-1.088-1.032-1.764l-3.568-2.825c-.37-.294-1.002-.666-.818-1.223.299-.901 1.968-1.153 2.723-.942 1.366.382 3.165 1.257 4.59 1.005.607-.108 1.12-.483 2.147-1.233"/></svg>