<svg xmlns="http://www.w3.org/2000/svg" width="68" height="68" fill="none"><path stroke="#C6C6C6" d="M.5 34C.5 15.499 15.499.5 34 .5 52.502.5 67.5 15.499 67.5 34c0 18.502-14.998 33.5-33.5 33.5C15.499 67.5.5 52.502.5 34Z"/><path stroke="#0D0D0D" stroke-linecap="round" stroke-linejoin="round" stroke-width="1.5" d="M41.5 19v4.5m-15-4.5v4.5M35.5 21.25h-3c-5.657 0-8.485 0-10.243 1.757C20.5 24.765 20.5 27.593 20.5 33.25V37c0 5.657 0 8.485 1.757 10.243C24.015 49 26.843 49 32.5 49h3c5.657 0 8.485 0 10.243-1.757C47.5 45.485 47.5 42.657 47.5 37v-3.75c0-5.657 0-8.485-1.757-10.243-1.758-1.757-4.586-1.757-10.243-1.757M21.25 28.75h25.5"/><path stroke="#0D0D0D" stroke-linecap="round" stroke-linejoin="round" stroke-width="1.5" d="M29.5 39.25s2.25.75 3 3c0 0 3.265-6 7.5-7.5"/></svg>