<svg xmlns="http://www.w3.org/2000/svg" width="68" height="68" fill="none"><path stroke="#C6C6C6" d="M.5 34C.5 15.499 15.499.5 34 .5 52.502.5 67.5 15.499 67.5 34c0 18.502-14.998 33.5-33.5 33.5C15.499 67.5.5 52.502.5 34Z"/><path stroke="#0D0D0D" stroke-linecap="round" stroke-linejoin="round" stroke-width="1.5" d="M43 19v3m-18-3v3"/><path stroke="#0D0D0D" stroke-linecap="round" stroke-linejoin="round" stroke-width="2" d="M33.993 35.5h.014m-.014 6h.014m5.98-6H40m-12 0h.014m-.014 6h.014"/><path stroke="#0D0D0D" stroke-linecap="round" stroke-linejoin="round" stroke-width="1.5" d="M21.25 28h25.5M19.75 34.365c0-6.536 0-9.804 1.878-11.835 1.878-2.03 4.901-2.03 10.947-2.03h2.85c6.046 0 9.069 0 10.947 2.03s1.878 5.299 1.878 11.835v.77c0 6.536 0 9.804-1.878 11.835C44.494 49 41.47 49 35.425 49h-2.85c-6.046 0-9.069 0-10.947-2.03S19.75 41.67 19.75 35.135zM20.5 28h27"/></svg>