<svg xmlns="http://www.w3.org/2000/svg" width="68" height="68" fill="none"><path stroke="#C6C6C6" d="M.5 34C.5 15.499 15.499.5 34 .5 52.502.5 67.5 15.499 67.5 34c0 18.502-14.998 33.5-33.5 33.5C15.499 67.5.5 52.502.5 34Z"/><path stroke="#0D0D0D" stroke-width="1.5" d="M41.5 46a3 3 0 1 0 0-6 3 3 0 0 0 0 6ZM26.5 46a3 3 0 1 0 0-6 3 3 0 0 0 0 6Z"/><path stroke="#0D0D0D" stroke-linecap="round" stroke-linejoin="round" stroke-width="1.5" d="M23.5 42.959c-1.645-.082-2.671-.327-3.402-1.057-.73-.73-.975-1.757-1.057-3.402M29.5 43h9m6-.041c1.645-.082 2.671-.327 3.402-1.057C49 40.803 49 39.035 49 35.5v-3h-7.05c-1.117 0-1.675 0-2.127-.147a3 3 0 0 1-1.926-1.926c-.147-.452-.147-1.01-.147-2.127 0-1.675 0-2.513-.22-3.19a4.5 4.5 0 0 0-2.89-2.89c-.677-.22-1.515-.22-3.19-.22H19M19 28h9M19 32.5h6"/><path stroke="#0D0D0D" stroke-linecap="round" stroke-linejoin="round" stroke-width="1.5" d="M37.75 25h2.732c2.183 0 3.274 0 4.163.53.888.531 1.405 1.492 2.44 3.414L49 32.5"/></svg>