<?xml version="1.0" standalone="no"?>
<!DOCTYPE svg PUBLIC "-//W3C//DTD SVG 20010904//EN"
 "http://www.w3.org/TR/2001/REC-SVG-20010904/DTD/svg10.dtd">
<svg version="1.0" xmlns="http://www.w3.org/2000/svg"
 width="45.000000pt" height="51.000000pt" viewBox="0 0 45.000000 51.000000"
 preserveAspectRatio="xMidYMid meet">

<g transform="translate(0.000000,51.000000) scale(0.100000,-0.100000)"
fill="#000000" stroke="none">
<path d="M0 255 l0 -255 225 0 225 0 0 249 c0 218 -2 250 -16 255 -9 3 -110 6
-225 6 l-209 0 0 -255z m183 65 c-9 -23 -7 -35 11 -66 11 -20 26 -39 32 -41 6
-2 20 20 31 49 20 52 20 53 2 74 -19 21 -26 69 -11 78 5 3 24 -10 42 -29 l34
-35 -17 -48 c-9 -26 -21 -66 -27 -89 -10 -40 -12 -42 -91 -72 -44 -17 -83 -31
-85 -31 -2 0 -4 13 -4 30 0 25 6 32 35 44 40 17 41 20 20 69 -8 20 -12 42 -9
50 3 8 -2 20 -11 27 -9 8 -15 29 -15 56 l0 44 37 -41 c33 -37 36 -43 26 -69z
m45 -233 c2 -12 -3 -17 -17 -17 -12 0 -21 6 -21 13 0 31 32 34 38 4z"/>
</g>
</svg>
