<svg xmlns="http://www.w3.org/2000/svg" width="60" height="68" version="1.0" viewBox="0 0 45 51"><path d="M0 25.5V51h45V26.1c0-21.8-.2-25-1.6-25.5-.9-.3-11-.6-22.5-.6H0zM18.3 19c-.9 2.3-.7 3.5 1.1 6.6 1.1 2 2.6 3.9 3.2 4.1s2-2 3.1-4.9c2-5.2 2-5.3.2-7.4-1.9-2.1-2.6-6.9-1.1-7.8.5-.3 2.4 1 4.2 2.9l3.4 3.5-1.7 4.8c-.9 2.6-2.1 6.6-2.7 8.9-1 4-1.2 4.2-9.1 7.2-4.4 1.7-8.3 3.1-8.5 3.1s-.4-1.3-.4-3c0-2.5.6-3.2 3.5-4.4 4-1.7 4.1-2 2-6.9-.8-2-1.2-4.2-.9-5s-.2-2-1.1-2.7c-.9-.8-1.5-2.9-1.5-5.6V8l3.7 4.1c3.3 3.7 3.6 4.3 2.6 6.9m4.5 23.3c.2 1.2-.3 1.7-1.7 1.7-1.2 0-2.1-.6-2.1-1.3 0-3.1 3.2-3.4 3.8-.4"/></svg>