<svg xmlns="http://www.w3.org/2000/svg" width="68" height="68" fill="none"><path stroke="#C6C6C6" d="M.5 34C.5 15.499 15.499.5 34 .5 52.502.5 67.5 15.499 67.5 34c0 18.502-14.998 33.5-33.5 33.5C15.499 67.5.5 52.502.5 34Z"/><path stroke="#0D0D0D" stroke-linecap="round" stroke-linejoin="round" stroke-width="1.5" d="M35.5 49c-1.227 0-2.4-.512-4.745-1.535-2.736-1.195-4.832-2.11-6.285-2.965H19M35.5 49c1.227 0 2.4-.512 4.745-1.535C46.082 44.917 49 43.643 49 41.5V25.75M35.5 49V32.5M22 25.75v4.5"/><path stroke="#0D0D0D" stroke-linecap="round" stroke-linejoin="round" stroke-width="1.5" d="m29.989 30.537-4.382-2.12C23.202 27.253 22 26.67 22 25.75s1.202-1.503 3.607-2.667l4.382-2.12C32.693 19.654 34.045 19 35.5 19s2.807.654 5.511 1.963l4.382 2.12C47.798 24.247 49 24.83 49 25.75s-1.202 1.503-3.607 2.667l-4.382 2.12C38.307 31.846 36.955 32.5 35.5 32.5s-2.807-.654-5.511-1.963M43.205 22.023 27.8 29.477M19 35.5h4.5M19 40h4.5"/></svg>