<svg xmlns="http://www.w3.org/2000/svg" width="68" height="68" fill="none"><path stroke="#C6C6C6" d="M.5 34C.5 15.499 15.499.5 34 .5 52.502.5 67.5 15.499 67.5 34c0 18.502-14.998 33.5-33.5 33.5C15.499 67.5.5 52.502.5 34Z"/><path stroke="#0D0D0D" stroke-linecap="round" stroke-linejoin="round" stroke-width="1.5" d="m30.247 38.5 11.25-11.25M28.01 27.518l10.98-5.19c4.563-2.156 6.844-3.235 8.3-2.153 1.455 1.082 1.039 3.547.208 8.477l-1.433 8.493c-.543 3.224-.815 4.836-2.017 5.539s-2.762.163-5.883-.917l-9.549-3.303c-5.837-2.019-8.756-3.028-8.866-5.01-.11-1.98 2.68-3.299 8.26-5.936M30.247 39.25v3.341c0 3.56 0 5.34 1.065 5.625 1.066.283 2.187-1.198 4.431-4.16l1.254-1.806"/></svg>