<svg width="40" height="40" viewBox="0 0 40 40" fill="none" xmlns="http://www.w3.org/2000/svg">
<path d="M0 10C0 4.47715 4.47715 0 10 0H30C35.5228 0 40 4.47715 40 10V30C40 35.5228 35.5228 40 30 40H10C4.47715 40 0 35.5228 0 30V10Z" fill="#0D0D0D"/>
<path d="M22 13.875C20.8954 13.875 20 12.9796 20 11.875C20 10.7704 20.8954 9.875 22 9.875C23.1046 9.875 24 10.7704 24 11.875C24 12.9796 23.1046 13.875 22 13.875Z" fill="#FBFBFB"/>
<path d="M19.25 11.875C19.25 10.3562 20.4812 9.125 22 9.125C23.5188 9.125 24.75 10.3562 24.75 11.875C24.75 13.3938 23.5188 14.625 22 14.625C20.4812 14.625 19.25 13.3938 19.25 11.875Z" fill="#FBFBFB"/>
<path fill-rule="evenodd" clip-rule="evenodd" d="M13.4088 20.4626C13.9129 20.6884 14.1384 21.2801 13.9126 21.7841C13.6401 22.3924 13.5 23.0828 13.5 23.8335C13.5 26.6137 15.7654 28.8752 18.5696 28.8752C20.2669 28.8752 21.7683 28.0468 22.6895 26.7721C23.013 26.3245 23.6381 26.2239 24.0857 26.5473C24.5334 26.8708 24.634 27.496 24.3105 27.9436C23.0281 29.7181 20.9338 30.8752 18.5696 30.8752C14.6695 30.8752 11.5 27.7269 11.5 23.8335C11.5 22.8334 11.6871 21.86 12.0874 20.9664C12.3132 20.4624 12.9048 20.2368 13.4088 20.4626Z" fill="#FBFBFB"/>
<path fill-rule="evenodd" clip-rule="evenodd" d="M20.8683 15.336C21.3797 15.5445 21.6252 16.1282 21.4167 16.6396L20.8225 18.0968C20.4273 19.066 20.1752 19.6908 20.0598 20.1566C20.0049 20.3784 19.9965 20.5077 20.0011 20.5795C20.0045 20.634 20.0143 20.6489 20.0202 20.6579C20.0204 20.6581 20.0205 20.6584 20.0207 20.6587C20.021 20.6591 20.0213 20.6595 20.0215 20.6599C20.0268 20.6681 20.0338 20.679 20.0731 20.6988C20.1294 20.7273 20.2429 20.7678 20.4609 20.8008C20.9209 20.8703 21.5771 20.8731 22.6067 20.8731C22.706 20.8731 22.7934 20.869 22.9011 20.8639C22.9547 20.8614 23.0132 20.8587 23.0808 20.8561C23.2572 20.8493 23.4881 20.8445 23.727 20.8756C24.2753 20.947 24.8481 21.2108 25.2264 21.8734L28.3685 27.3773C28.6423 27.8569 28.4754 28.4677 27.9958 28.7415C27.5162 29.0153 26.9054 28.8485 26.6316 28.3688L23.4895 22.865C23.4888 22.8638 23.4882 22.8627 23.4876 22.8617C23.4822 22.8608 23.476 22.8598 23.4688 22.8589C23.405 22.8506 23.314 22.8486 23.1573 22.8546C23.1245 22.8559 23.0858 22.8577 23.043 22.8597C22.9167 22.8655 22.7551 22.8731 22.6067 22.8731C22.581 22.8731 22.5554 22.8731 22.5299 22.8731C21.5999 22.8731 20.7896 22.8732 20.162 22.7783C19.4937 22.6773 18.7922 22.4359 18.3457 21.7515C17.9034 21.0735 17.9555 20.3337 18.1185 19.6757C18.2055 19.3244 18.3418 18.9299 18.5084 18.4953L17.7612 18.1217L15.7682 20.5132C15.4147 20.9375 14.7841 20.9948 14.3598 20.6413C13.9356 20.2877 13.8782 19.6571 14.2318 19.2329L16.7318 16.2329C17.0289 15.8764 17.5322 15.7711 17.9472 15.9786L19.2589 16.6345L19.5648 15.8844C19.7733 15.373 20.3569 15.1275 20.8683 15.336Z" fill="#FBFBFB"/>
</svg>
