<svg width="68" height="68" viewBox="0 0 68 68" fill="none" xmlns="http://www.w3.org/2000/svg">
<path d="M0.5 34C0.5 15.4985 15.4985 0.5 34 0.5C52.5015 0.5 67.5 15.4985 67.5 34C67.5 52.5015 52.5015 67.5 34 67.5C15.4985 67.5 0.5 52.5015 0.5 34Z" stroke="#C6C6C6"/>
<path d="M41.5 19V23.5M26.5 19V23.5" stroke="#0D0D0D" stroke-width="1.5" stroke-linecap="round" stroke-linejoin="round"/>
<path d="M35.5 21.25H32.5C26.8431 21.25 24.0147 21.25 22.2574 23.0074C20.5 24.7647 20.5 27.5931 20.5 33.25V37C20.5 42.6568 20.5 45.4853 22.2574 47.2426C24.0147 49 26.8431 49 32.5 49H35.5C41.1568 49 43.9853 49 45.7426 47.2426C47.5 45.4853 47.5 42.6568 47.5 37V33.25C47.5 27.5931 47.5 24.7647 45.7426 23.0074C43.9853 21.25 41.1568 21.25 35.5 21.25Z" stroke="#0D0D0D" stroke-width="1.5" stroke-linecap="round" stroke-linejoin="round"/>
<path d="M21.25 28.75H46.75" stroke="#0D0D0D" stroke-width="1.5" stroke-linecap="round" stroke-linejoin="round"/>
<path d="M29.5 39.25C29.5 39.25 31.75 40 32.5 42.25C32.5 42.25 35.7648 36.25 40 34.75" stroke="#0D0D0D" stroke-width="1.5" stroke-linecap="round" stroke-linejoin="round"/>
</svg>
