<svg width="24" height="25" viewBox="0 0 24 25" fill="none" xmlns="http://www.w3.org/2000/svg">
<path fill-rule="evenodd" clip-rule="evenodd" d="M12.0572 2.20117H12.0572C14.2479 2.20116 15.9686 2.20115 17.312 2.38177C18.6886 2.56685 19.7809 2.95389 20.6391 3.81209C21.4973 4.67028 21.8843 5.76254 22.0694 7.1392C22.25 8.48261 22.25 10.2033 22.25 12.394V12.5084C22.25 14.6991 22.25 16.4197 22.0694 17.7631C21.8843 19.1398 21.4973 20.2321 20.6391 21.0903C19.7809 21.9485 18.6886 22.3355 17.312 22.5206C15.9686 22.7012 14.2479 22.7012 12.0572 22.7012H11.9428C9.7521 22.7012 8.03144 22.7012 6.68802 22.5206C5.31137 22.3355 4.21911 21.9485 3.36091 21.0903C2.50272 20.2321 2.11568 19.1398 1.93059 17.7631C1.74998 16.4197 1.74999 14.6991 1.75 12.5084V12.5083V12.394V12.394C1.74999 10.2033 1.74998 8.48261 1.93059 7.1392C2.11568 5.76254 2.50272 4.67028 3.36091 3.81209C4.21911 2.95389 5.31137 2.56685 6.68802 2.38177C8.03144 2.20115 9.75212 2.20116 11.9428 2.20117H11.9428H12.0572ZM16.6757 8.71402C17.0828 9.08722 17.1103 9.71978 16.7372 10.1269L11.2372 16.1269C11.0528 16.328 10.7944 16.445 10.5217 16.4509C10.249 16.4569 9.98576 16.3512 9.79289 16.1583L7.29289 13.6583C6.90237 13.2678 6.90237 12.6346 7.29289 12.2441C7.68342 11.8535 8.31658 11.8535 8.70711 12.2441L10.4686 14.0056L15.2628 8.77545C15.636 8.36833 16.2686 8.34083 16.6757 8.71402Z" fill="#021341"/>
</svg>
