<svg width="26" height="26" viewBox="0 0 26 26" fill="none" xmlns="http://www.w3.org/200
          
          0/svg">
            <path d="M17.9022 6.43947C16.8077 6.43938 15.8344 6.4393 15.0486 6.54497C14.1946 6.65983 13.3322 6.92469 12.6274 7.62973C11.9226 8.33477 11.6578 9.19742 11.543 10.0517C11.4373 10.8377 11.4374 11.8113 11.4375 12.9061L11.4375 13.9418H10.5C9.63706 13.9418 8.9375 14.6416 8.9375 15.5048C8.9375 16.368 9.63706 17.0678 10.5 17.0678H11.4375V24.5647C11.4375 25.1575 11.4375 25.4539 11.2516 25.6375C11.0658 25.8211 10.7716 25.8174 10.1834 25.8099C8.69657 25.7911 7.43219 25.7389 6.36003 25.5948C4.63921 25.3633 3.27389 24.8794 2.20114 23.8063C1.12839 22.7332 0.644602 21.3675 0.413243 19.6461C0.187472 17.9663 0.187484 15.8148 0.1875 13.0756V12.9325C0.187484 10.1933 0.187472 8.04177 0.413243 6.36197C0.644602 4.64061 1.12839 3.27486 2.20114 2.20177C3.27389 1.12869 4.63921 0.644745 6.36003 0.413313C8.03929 0.187472 10.1902 0.187484 12.9285 0.1875H13.0715C15.8098 0.187484 17.9607 0.187472 19.64 0.413313C21.3608 0.644745 22.7261 1.12869 23.7989 2.20177C24.8716 3.27486 25.3554 4.64061 25.5868 6.36197C25.8125 8.04176 25.8125 10.1933 25.8125 12.9326V13.0756C25.8125 15.8148 25.8125 17.9663 25.5868 19.6461C25.3554 21.3675 24.8716 22.7332 23.7989 23.8063C22.7261 24.8794 21.3608 25.3633 19.64 25.5948C18.5678 25.7389 17.3034 25.7911 15.8166 25.8099C15.2284 25.8174 14.9342 25.8211 14.7484 25.6375C14.5625 25.4539 14.5625 25.1575 14.5625 24.5646V17.0678H16.75C17.6129 17.0678 18.3125 16.368 18.3125 15.5048C18.3125 14.6416 17.6129 13.9418 16.75 13.9418H14.5625V13.004C14.5625 11.781 14.5658 11.0209 14.6401 10.4683C14.7071 9.96947 14.8061 9.87094 14.8356 9.84164L14.8371 9.84014L14.8386 9.83863C14.8679 9.80917 14.9664 9.71014 15.465 9.64308C16.0175 9.56878 16.7773 9.56546 18 9.56546H19.25C20.1129 9.56546 20.8125 8.86569 20.8125 8.00247C20.8125 7.13925 20.1129 6.43948 19.25 6.43948L17.9022 6.43947Z" fill="#0D0D0D"/>
          </svg>