<?xml version="1.0" encoding="UTF-8"?>
<svg version="1.1" xmlns="http://www.w3.org/2000/svg" width="284" height="178">
<path d="M0 0 C93.72 0 187.44 0 284 0 C284 58.74 284 117.48 284 178 C190.28 178 96.56 178 0 178 C0 119.26 0 60.52 0 0 Z " fill="#FDFDFD" transform="translate(0,0)"/>
<path d="M0 0 C2.40624819 0.97147389 3.74081728 2.24845371 5.56538486 4.09285355 C6.26580906 4.79350433 6.96623325 5.49415512 7.68788242 6.21603775 C8.43281956 6.97645874 9.17775669 7.73687973 9.94526768 8.52034378 C10.71646946 9.29579041 11.48767124 10.07123703 12.28224277 10.87018204 C14.74474978 13.34948694 17.19662401 15.83901745 19.64839268 18.32893753 C21.31567177 20.01126193 22.98363237 21.6929112 24.65229893 23.37385941 C28.7422717 27.49691628 32.82356189 31.62841811 36.89839268 35.76643753 C41.46148834 31.94553658 45.81614542 27.9982447 50.01558018 23.78206253 C50.55820499 23.24039444 51.10082981 22.69872635 51.6598978 22.14064407 C52.79205579 21.0091601 53.92297816 19.87643849 55.05268955 18.74251175 C56.78657734 17.00321171 58.52581334 15.26938611 60.26558018 13.53596878 C61.37006808 12.43082098 62.47424623 11.32536351 63.57808018 10.21956253 C64.09780399 9.70186295 64.61752781 9.18416336 65.15300083 8.65077591 C67.86326541 5.96305604 67.86326541 5.96305604 69.89839268 2.76643753 C73.84670811 3.27573438 75.68046567 4.07308804 78.31636143 7.04768753 C78.92592686 7.72041702 79.53549229 8.39314651 80.1635294 9.08626175 C80.79790928 9.80571976 81.43228916 10.52517776 82.08589268 11.26643753 C86.99869573 16.6856905 91.95714105 21.77170252 97.49458408 26.56355667 C99.78629357 28.66370848 101.80683814 30.83457178 103.84761143 33.17659378 C109.20874416 39.19486907 114.86836319 44.88757739 120.57588291 50.57429886 C122.3610169 52.35398508 124.1406298 54.13907108 125.91987705 55.92464066 C127.05692564 57.06102985 128.19428363 58.19710956 129.33198643 59.33284378 C129.86214863 59.86503021 130.39231083 60.39721664 130.93853855 60.94552994 C133.660662 63.69771389 133.660662 63.69771389 136.89839268 65.76643753 C136.89839268 66.42643753 136.89839268 67.08643753 136.89839268 67.76643753 C134.58839268 67.76643753 132.27839268 67.76643753 129.89839268 67.76643753 C129.96026768 68.88018753 130.02214268 69.99393753 130.08589268 71.14143753 C130.11377397 76.32735722 128.57232218 80.90407087 126.89839268 85.76643753 C130.09338901 85.93711041 132.8667595 85.84504968 135.89839268 84.76643753 C137.93947011 81.98877293 138.84313854 79.01968215 139.89839268 75.76643753 C140.54205483 74.42184791 141.20173837 73.08435065 141.89839268 71.76643753 C143.60348983 73.30971527 145.28706008 74.87680503 146.96089268 76.45393753 C148.37048252 77.75911331 148.37048252 77.75911331 149.80854893 79.09065628 C151.89839268 81.76643753 151.89839268 81.76643753 151.71712208 84.21297264 C150.8258896 86.99256115 149.92881309 88.24246242 147.88856602 90.29765701 C147.24652729 90.95386536 146.60448856 91.6100737 145.94299412 92.28616714 C145.23443775 92.98976868 144.52588139 93.69337021 143.79585361 94.418293 C143.05271412 95.17165436 142.30957462 95.92501572 141.54391575 96.70120621 C139.08381067 99.18911928 136.60911486 101.6618852 134.13276768 104.13362503 C132.41937224 105.85479185 130.70642647 107.57640642 128.9939127 109.29845047 C125.40262506 112.90466481 121.80367836 116.50302386 118.19966221 120.09651566 C113.57433364 124.71023737 108.9721684 129.34632282 104.37589741 133.9889698 C100.84506626 137.54920855 97.30053844 141.09555635 93.7518549 144.63799286 C92.04866042 146.34221658 90.35021012 148.05119494 88.65656376 149.76490784 C86.29123316 152.15481121 83.90774085 154.52497307 81.51850986 156.89094925 C80.81805042 157.60669617 80.11759098 158.32244308 79.39590549 159.0598793 C78.74258747 159.6991687 78.08926945 160.3384581 77.41615391 160.9971199 C76.85423721 161.55937208 76.29232052 162.12162426 75.71337605 162.70091438 C73.89839268 163.76643753 73.89839268 163.76643753 71.29678535 163.52770901 C68.51340329 162.64423842 67.25058379 161.60330566 65.20967197 159.53181839 C64.52934406 158.85118835 63.84901615 158.17055832 63.14807224 157.46930313 C62.43017017 156.73075592 61.7122681 155.99220871 60.97261143 155.23128128 C60.22502064 154.4780307 59.47742985 153.72478012 58.70718479 152.94870377 C56.32386531 150.5430114 53.95483609 148.12377949 51.58589268 145.70393753 C49.97158093 144.06956217 48.35635701 142.43608725 46.74018955 140.80354691 C42.78228377 136.80156154 38.83601873 132.78837267 34.89839268 128.76643753 C31.9871062 130.07835398 29.96522138 131.46758586 27.75386143 133.7632637 C27.16645176 134.36696289 26.57904209 134.97066208 25.97383213 135.59265518 C25.35081211 136.24168304 24.72779209 136.89071091 24.08589268 137.55940628 C22.75038383 138.92505998 21.414433 140.29028156 20.07808018 141.65510941 C17.97932201 143.80981146 15.88469599 145.96815476 13.79780674 148.13435745 C11.77983955 150.22459801 9.74673394 152.29909183 7.71089268 154.37190628 C6.77636265 155.35455711 6.77636265 155.35455711 5.82295322 156.35705948 C5.23554356 156.95130219 4.64813389 157.54554489 4.04292393 158.15779495 C3.53092442 158.68692993 3.0189249 159.21606491 2.49141026 159.76123428 C0.89839268 160.76643753 0.89839268 160.76643753 -0.98561287 160.52017021 C-3.46962059 159.63534852 -4.683897 158.56640613 -6.55053616 156.71191788 C-7.21378399 156.06001984 -7.87703182 155.4081218 -8.56037807 154.73646927 C-9.27692562 154.01699112 -9.99347317 153.29751297 -10.73173428 152.55623245 C-11.49470318 151.80173309 -12.25767208 151.04723373 -13.04376125 150.26987076 C-15.5670328 147.77002683 -18.0789196 145.25910332 -20.58988857 142.74690628 C-22.33505029 141.00884124 -24.08051222 139.27107757 -25.82626247 137.53360367 C-29.48389157 133.88943171 -33.1355131 130.23936034 -36.78349209 126.58552933 C-41.46901735 121.89409892 -46.17255241 117.22119444 -50.88117599 112.5529623 C-54.49018873 108.9697384 -58.08773097 105.37516986 -61.68204212 101.77720451 C-63.41213213 100.04881318 -65.14623226 98.3244266 -66.88431644 96.60407448 C-69.30773548 94.20267497 -71.7148883 91.78607493 -74.11845303 89.3648262 C-75.20845608 88.29471802 -75.20845608 88.29471802 -76.32047939 87.20299149 C-76.96962811 86.54263397 -77.61877682 85.88227646 -78.2875967 85.20190811 C-78.85852204 84.63169528 -79.42944738 84.06148245 -80.01767349 83.47399044 C-81.10160732 81.76643753 -81.10160732 81.76643753 -80.96839046 79.76727867 C-79.96401974 77.44883688 -78.82750385 76.10959044 -77.04708767 74.3175087 C-76.39518963 73.65426086 -75.74329159 72.99101303 -75.07163906 72.30766678 C-74.35216091 71.59111923 -73.63268276 70.87457169 -72.89140224 70.13631058 C-72.13690289 69.37334167 -71.38240353 68.61037277 -70.60504055 67.8242836 C-68.10519662 65.30101205 -65.59427311 62.78912525 -63.08207607 60.27815628 C-61.34401103 58.53299456 -59.60624737 56.78753263 -57.86877346 55.04178238 C-54.2246015 51.38415328 -50.57453013 47.73253175 -46.92069912 44.08455276 C-42.22926871 39.3990275 -37.55636423 34.69549245 -32.8881321 29.98686886 C-29.3049082 26.37785612 -25.71033965 22.78031389 -22.11237431 19.18600273 C-20.38398297 17.45591272 -18.65959639 15.72181259 -16.93924427 13.98372841 C-14.53784476 11.56030938 -12.12124472 9.15315655 -9.69999599 6.74959183 C-8.62988781 5.65958878 -8.62988781 5.65958878 -7.53816128 4.54756546 C-6.87780376 3.89841675 -6.21744625 3.24926804 -5.5370779 2.58044815 C-4.96686507 2.00952281 -4.39665224 1.43859747 -3.80916023 0.85037136 C-2.10160732 -0.23356247 -2.10160732 -0.23356247 0 0 Z " fill="#C41016" transform="translate(102.10160732269287,9.233562469482422)"/>
<path d="M0 0 C3.94831543 0.50929685 5.78207299 1.30665051 8.41796875 4.28125 C9.02753418 4.95397949 9.63709961 5.62670898 10.26513672 6.31982422 C10.8995166 7.03928223 11.53389648 7.75874023 12.1875 8.5 C17.10030305 13.91925297 22.05874837 19.00526499 27.59619141 23.79711914 C29.8879009 25.89727095 31.90844546 28.06813425 33.94921875 30.41015625 C39.31035148 36.42843154 44.96997051 42.12113986 50.67749023 47.80786133 C52.46262422 49.58754755 54.24223712 51.37263355 56.02148438 53.15820312 C57.15853296 54.29459232 58.29589095 55.43067203 59.43359375 56.56640625 C60.22883705 57.3646859 60.22883705 57.3646859 61.04014587 58.17909241 C63.76226933 60.93127636 63.76226933 60.93127636 67 63 C67 63.66 67 64.32 67 65 C64.69 65 62.38 65 60 65 C60.061875 66.11375 60.12375 67.2275 60.1875 68.375 C60.21538129 73.56091969 58.6739295 78.13763334 57 83 C60.19499633 83.17067288 62.96836683 83.07861215 66 82 C68.04107743 79.2223354 68.94474586 76.25324462 70 73 C70.64366215 71.65541038 71.30334569 70.31791312 72 69 C73.70509716 70.54327774 75.3886674 72.1103675 77.0625 73.6875 C78.47208984 74.99267578 78.47208984 74.99267578 79.91015625 76.32421875 C82 79 82 79 81.8187294 81.44653511 C80.92749693 84.22612362 80.03042041 85.47602488 77.99017334 87.53121948 C77.34813461 88.18742783 76.70609589 88.84363617 76.04460144 89.51972961 C75.33604507 90.22333115 74.62748871 90.92693268 73.89746094 91.65185547 C73.15432144 92.40521683 72.41118195 93.15857819 71.64552307 93.93476868 C69.18541799 96.42268175 66.71072219 98.89544767 64.234375 101.3671875 C62.52097956 103.08835432 60.8080338 104.80996889 59.09552002 106.53201294 C55.50423238 110.13822728 51.90528568 113.73658633 48.30126953 117.33007812 C43.67594097 121.94379984 39.07377572 126.57988529 34.47750473 131.22253227 C30.94667359 134.78277101 27.40214576 138.32911882 23.85346222 141.87155533 C22.15026775 143.57577905 20.45181744 145.28475741 18.75817108 146.99847031 C16.39284048 149.38837368 14.00934818 151.75853554 11.62011719 154.12451172 C10.91965775 154.84025864 10.2191983 155.55600555 9.49751282 156.29344177 C8.84419479 156.93273117 8.19087677 157.57202057 7.51776123 158.23068237 C6.95584454 158.79293455 6.39392784 159.35518673 5.81498337 159.93447685 C4 161 4 161 1.40076542 160.76364422 C-1.42141851 159.86595366 -2.70905645 158.77517546 -4.78051758 156.67358398 C-5.83104057 155.6226078 -5.83104057 155.6226078 -6.90278625 154.55039978 C-7.6425621 153.78997879 -8.38233795 153.0295578 -9.14453125 152.24609375 C-9.91431808 151.47064713 -10.68410492 150.6952005 -11.47721863 149.89625549 C-13.93186121 147.41923636 -16.37222609 144.92866797 -18.8125 142.4375 C-20.47498923 140.75494764 -22.13839018 139.07329561 -23.80273438 137.39257812 C-27.87912353 133.27210448 -31.94387895 129.14042147 -36 125 C-30.56887069 118.5850616 -24.93691428 112.40886712 -19.09814453 106.36352539 C-17.9481991 105.16160595 -16.81009331 103.94824758 -15.68408203 102.72387695 C-6.26842422 92.50511087 -6.26842422 92.50511087 -0.48925781 91.21826172 C2.45773401 91.21523251 5.11743327 91.4091816 8 92 C8.05631592 91.32477295 8.11263184 90.6495459 8.1706543 89.95385742 C8.53988035 85.6329862 9.04881211 81.47010488 10.0625 77.25 C10.89105658 73.76264247 11.27033536 70.60447153 11 67 C9.45049732 65.45049732 7.90009406 65.78344807 5.74609375 65.68359375 C4.89208984 65.64169922 4.03808594 65.59980469 3.15820312 65.55664062 C2.26037109 65.51732422 1.36253906 65.47800781 0.4375 65.4375 C-0.46419922 65.39431641 -1.36589844 65.35113281 -2.29492188 65.30664062 C-4.52978485 65.20021858 -6.76476308 65.09820012 -9 65 C-9 66.98 -9 68.96 -9 71 C-6.03 71 -3.06 71 0 71 C-0.21534992 84.78239485 -13.22567654 93.34941154 -22.4375 102.5 C-23.75479059 103.81226585 -25.07184986 105.12476395 -26.38867188 106.4375 C-29.5897861 109.62768506 -32.79401865 112.81470651 -36 116 C-37.32 115.34 -38.64 114.68 -40 114 C-37.64290747 108.59972721 -33.33393934 104.88563477 -29.25 100.75 C-28.05117187 99.48929688 -28.05117187 99.48929688 -26.828125 98.203125 C-26.044375 97.4090625 -25.260625 96.615 -24.453125 95.796875 C-23.74317383 95.06823242 -23.03322266 94.33958984 -22.30175781 93.58886719 C-19.37821647 91.57079262 -17.47791522 91.69675874 -14 92 C-14.433125 91.37351562 -14.86625 90.74703125 -15.3125 90.1015625 C-15.869375 89.28429687 -16.42625 88.46703125 -17 87.625 C-17.556875 86.81289062 -18.11375 86.00078125 -18.6875 85.1640625 C-20 83 -20 83 -20 81 C-19.21625 80.773125 -18.4325 80.54625 -17.625 80.3125 C-14.89400364 79.23855216 -14.89400364 79.23855216 -13.75 76.9375 C-12.73570477 72.96484368 -12.36579039 69.08465932 -12 65 C-15.63 65 -19.26 65 -23 65 C-22.979375 66.11375 -22.95875 67.2275 -22.9375 68.375 C-23 72 -23 72 -24 74 C-24.66 74 -25.32 74 -26 74 C-26.65382778 72.68056375 -27.2730468 71.34389551 -27.875 70 C-29.06704984 67.70917606 -29.06704984 67.70917606 -31 66 C-35.07551955 65.27735247 -38.90253653 65.52947788 -43 66 C-42.34 66.94875 -41.68 67.8975 -41 68.875 C-39 72 -39 72 -39 74 C-39.77988281 74.19980469 -40.55976563 74.39960937 -41.36328125 74.60546875 C-44.2582672 75.7917253 -44.2582672 75.7917253 -45.29296875 78.86328125 C-45.58816406 80.00152344 -45.88335937 81.13976562 -46.1875 82.3125 C-49.24417731 93.71975958 -49.24417731 93.71975958 -54 98 C-54.99 97.67 -55.98 97.34 -57 97 C-56.42137365 93.09427217 -54.47900791 90.98939189 -52 88 C-48.76232731 83.14349097 -46.65655904 78.72869926 -47.1875 72.8125 C-48.05236007 68.62852763 -48.05236007 68.62852763 -51 66 C-52.91965648 65.50176904 -52.91965648 65.50176904 -55.01171875 65.48828125 C-56.14770508 65.43510742 -56.14770508 65.43510742 -57.30664062 65.38085938 C-58.09232422 65.35830078 -58.87800781 65.33574219 -59.6875 65.3125 C-60.48478516 65.27833984 -61.28207031 65.24417969 -62.10351562 65.20898438 C-64.06851904 65.12661896 -66.03423696 65.06162933 -68 65 C-68 64.67 -68 64.34 -68 64 C-66.47052734 63.93631226 -66.47052734 63.93631226 -64.91015625 63.87133789 C-60.10424804 63.16977242 -57.68464566 60.46875145 -54.4375 57.05859375 C-53.84251709 56.45749283 -53.24753418 55.85639191 -52.63452148 55.23707581 C-50.74181829 53.31754193 -48.87121774 51.37795955 -47 49.4375 C-45.743531 48.15948505 -44.48572977 46.88277843 -43.2265625 45.60742188 C-36.15373235 38.41652903 -36.15373235 38.41652903 -29.4296875 30.90234375 C-24.36286891 24.97117616 -18.66967773 19.60359473 -13.125 14.125 C-10.85390387 11.88047379 -8.58613825 9.63265749 -6.3203125 7.3828125 C-5.54072678 6.61567429 -5.54072678 6.61567429 -4.74539185 5.83303833 C-2.02984891 3.17699878 -2.02984891 3.17699878 0 0 Z " fill="#032A59" transform="translate(172,12)"/>
<path d="M0 0 C1.73417089 1.46137997 3.45911765 2.93149032 5.171875 4.41796875 C6.59806059 5.65216782 8.04513751 6.86223844 9.5 8.0625 C11 10 11 10 10.78186417 12.40039253 C9.92782327 15.23997925 9.05993591 16.44629314 6.99017334 18.53121948 C6.34813461 19.18742783 5.70609589 19.84363617 5.04460144 20.51972961 C3.98176689 21.57513191 3.98176689 21.57513191 2.89746094 22.65185547 C2.15432144 23.40521683 1.41118195 24.15857819 0.64552307 24.93476868 C-1.81458201 27.42268175 -4.28927781 29.89544767 -6.765625 32.3671875 C-8.47902044 34.08835432 -10.1919662 35.80996889 -11.90447998 37.53201294 C-15.49576762 41.13822728 -19.09471432 44.73658633 -22.69873047 48.33007812 C-27.32405903 52.94379984 -31.92622428 57.57988529 -36.52249527 62.22253227 C-40.05332641 65.78277101 -43.59785424 69.32911882 -47.14653778 72.87155533 C-48.84973225 74.57577905 -50.54818256 76.28475741 -52.24182892 77.99847031 C-54.60715952 80.38837368 -56.99065182 82.75853554 -59.37988281 85.12451172 C-60.08034225 85.84025864 -60.7808017 86.55600555 -61.50248718 87.29344177 C-62.15580521 87.93273117 -62.80912323 88.57202057 -63.48223877 89.23068237 C-64.04415546 89.79293455 -64.60607216 90.35518673 -65.18501663 90.93447685 C-67 92 -67 92 -69.59923458 91.76364422 C-72.42141851 90.86595366 -73.70905645 89.77517546 -75.78051758 87.67358398 C-76.48086624 86.9729332 -77.1812149 86.27228241 -77.90278625 85.55039978 C-79.01245003 84.4097683 -79.01245003 84.4097683 -80.14453125 83.24609375 C-80.91431808 82.47064713 -81.68410492 81.6952005 -82.47721863 80.89625549 C-84.93186121 78.41923636 -87.37222609 75.92866797 -89.8125 73.4375 C-91.47498923 71.75494764 -93.13839018 70.07329561 -94.80273438 68.39257812 C-98.87912353 64.27210448 -102.94387895 60.14042147 -107 56 C-101.56887069 49.5850616 -95.93691428 43.40886712 -90.09814453 37.36352539 C-88.9481991 36.16160595 -87.81009331 34.94824758 -86.68408203 33.72387695 C-77.26842422 23.50511087 -77.26842422 23.50511087 -71.48925781 22.21826172 C-68.54226599 22.21523251 -65.88256673 22.4091816 -63 23 C-62.67 20.69 -62.34 18.38 -62 16 C-61.34 16 -60.68 16 -60 16 C-59.34 17.98 -58.68 19.96 -58 22 C-53.53427636 22.04958948 -49.06870039 22.085809 -44.6027832 22.10986328 C-43.08485114 22.11989545 -41.56693827 22.13352438 -40.04907227 22.15087891 C-37.8620936 22.17525035 -35.67537136 22.18651095 -33.48828125 22.1953125 C-31.51661987 22.21102295 -31.51661987 22.21102295 -29.50512695 22.22705078 C-26.1571702 22.01018098 -23.93727667 21.58795771 -21 20 C-20.28752268 18.3523962 -19.62599617 16.68236471 -19 15 C-16.375 12.1875 -16.375 12.1875 -14 10 C-14 11.32 -14 12.64 -14 14 C-10.80449557 14.17070002 -8.03254181 14.07707519 -5 13 C-2.11922094 9.17444932 -1.09366765 4.59550735 0 0 Z " fill="#022A59" transform="translate(243,81)"/>
<path d="M0 0 C93.72 0 187.44 0 284 0 C284 58.74 284 117.48 284 178 C190.28 178 96.56 178 0 178 C0 119.26 0 60.52 0 0 Z M4 9 C1.96481969 12.52432674 1.74311516 15.07688815 1.72584534 19.159729 C1.71587021 20.42420364 1.70589508 21.68867828 1.69561768 22.99147034 C1.6947219 24.39047229 1.69405832 25.7894744 1.69360352 27.18847656 C1.68598082 28.6637565 1.67755313 30.13903247 1.66838074 31.61430359 C1.64643676 35.62068212 1.63763672 39.62698433 1.63255429 43.63341618 C1.6289099 46.13811458 1.62266934 48.64279303 1.6155529 51.14748383 C1.59105653 59.89048642 1.57800659 68.63342969 1.57446289 77.37646484 C1.57082982 85.51766301 1.54095151 93.65848367 1.49905831 101.79956651 C1.46432625 108.79505648 1.44891393 115.79042156 1.44821686 122.78599715 C1.44742488 126.96143475 1.4387236 131.13648796 1.41021919 135.31183624 C1.38398898 139.24200681 1.38186037 143.17147575 1.39787483 147.10169411 C1.39968556 148.53997901 1.39303249 149.9783047 1.37705612 151.416502 C1.29437214 159.34655684 1.2634995 166.01787513 7 172 C9.91962284 174.53930741 11.68576041 175.37526853 15.55156517 175.38031673 C16.46499542 175.38875668 17.37842566 175.39719662 18.31953561 175.40589231 C19.31932903 175.39988227 20.31912246 175.39387222 21.34921265 175.38768005 C22.94669985 175.39575836 22.94669985 175.39575836 24.57645953 175.40399987 C28.15704645 175.41834562 31.73726712 175.41115924 35.31787109 175.40405273 C37.88012491 175.40975286 40.44237617 175.41671572 43.00462341 175.42485046 C49.24926213 175.44096768 55.49376484 175.44287425 61.73841809 175.43763756 C66.81408299 175.43359798 71.88971815 175.4350369 76.96538162 175.44038582 C77.68747661 175.44113424 78.4095716 175.44188266 79.15354825 175.44265376 C80.62044473 175.44418523 82.08734121 175.44572357 83.55423768 175.44726873 C97.31520416 175.46100133 111.07611381 175.455551 124.837079 175.44408352 C137.42638815 175.43415271 150.01555028 175.44708778 162.60483675 175.47101771 C175.5300895 175.49540119 188.45527377 175.50501829 201.38054907 175.49836498 C208.6376578 175.49487078 215.89465349 175.49711792 223.15174484 175.51461601 C229.9758529 175.53086585 236.79963515 175.52616804 243.62375069 175.50731087 C246.13037244 175.50361526 248.63701487 175.50676156 251.14361763 175.51719666 C254.56167868 175.53034121 257.9787999 175.51891584 261.39682007 175.50120544 C262.39215205 175.51081045 263.38748402 175.52041546 264.41297758 175.53031152 C270.0871531 175.46969185 273.61042233 174.96601251 278 171 C280.98778212 167.20856862 281.3761559 164.35328256 281.38095093 159.5859375 C281.3894104 158.29051025 281.39786987 156.99508301 281.40658569 155.66040039 C281.40075326 154.23193233 281.39460878 152.80346552 281.38818359 151.375 C281.39225031 149.86514913 281.39759276 148.35530125 281.40411377 146.84545898 C281.41778132 142.75043429 281.41249109 138.65563654 281.40297651 134.56060791 C281.395377 130.273472 281.40242634 125.98635542 281.40713501 121.69921875 C281.41259171 114.49996454 281.4054032 107.30080268 281.39111328 100.1015625 C281.37478691 91.78030496 281.38007548 83.45926794 281.3965925 75.13801575 C281.4102098 67.99137994 281.41212583 60.84481049 281.40427649 53.69816589 C281.39960131 49.43073919 281.39897084 45.16341612 281.40888596 40.89599609 C281.41755692 36.88385707 281.41153149 32.87200215 281.39420319 28.8598938 C281.39023902 27.38811718 281.39137123 25.91631663 281.39799118 24.44454956 C281.40619864 22.43439594 281.39407758 20.42419002 281.38095093 18.4140625 C281.37981985 17.2895166 281.37868877 16.1649707 281.37752342 15.00634766 C280.77647375 10.21998434 279.01469205 7.91581626 275.47393703 4.72008705 C270.69773158 2.35519411 266.67927685 2.43856266 261.41700745 2.47860718 C259.81801531 2.46713054 259.81801531 2.46713054 258.18672031 2.45542204 C254.61459535 2.43478357 251.04311462 2.44274179 247.47094727 2.45068359 C244.91001795 2.44198945 242.34909385 2.43162318 239.78817749 2.41970825 C233.55414596 2.39568937 227.32035197 2.3906254 221.08628315 2.39530878 C216.01877007 2.39887647 210.95130925 2.39537301 205.88380241 2.38685989 C205.16226713 2.38566952 204.44073185 2.38447914 203.69733186 2.38325269 C202.23148417 2.38082916 200.76563649 2.37840089 199.29978883 2.37596793 C185.55689363 2.35422124 171.81409661 2.35853999 158.07119589 2.37073763 C145.50202185 2.38107696 132.93315776 2.35856208 120.36404503 2.32054119 C107.45340024 2.28178698 94.54290209 2.2652718 81.63219875 2.27278769 C74.38564696 2.27661206 67.13935901 2.27163383 59.89285469 2.24335861 C53.07926366 2.21704127 46.26639387 2.22204667 39.45277023 2.24818039 C36.95140182 2.25292079 34.44998998 2.24741077 31.94867134 2.23093414 C28.53504807 2.21006838 25.12352334 2.22613977 21.7099762 2.2515564 C20.22339385 2.22943354 20.22339385 2.22943354 18.70677954 2.20686376 C12.13700728 2.30985522 8.18945308 3.79650385 4 9 Z " fill="#436083" transform="translate(0,0)"/>
<path d="M0 0 C3.96 0 7.92 0 12 0 C11.38266638 7.09933659 10.3692393 14.00757405 9 21 C15.65223979 21.07784172 15.65223979 21.07784172 21.125 17.9375 C22.26640188 14.10565083 22.20296839 10.99171169 22 7 C19.69 6.67 17.38 6.34 15 6 C15 4.02 15 2.04 15 0 C17.58396679 -0.08112454 20.16537568 -0.14054748 22.75 -0.1875 C23.47960937 -0.21263672 24.20921875 -0.23777344 24.9609375 -0.26367188 C28.34486604 -0.30981636 30.57858557 -0.25324128 33.515625 1.51171875 C34.25039062 2.24841797 34.25039062 2.24841797 35 3 C35.33 2.01 35.66 1.02 36 0 C39.12498063 -0.02895976 42.2499269 -0.04678483 45.375 -0.0625 C46.26445313 -0.07087891 47.15390625 -0.07925781 48.0703125 -0.08789062 C48.92109375 -0.09111328 49.771875 -0.09433594 50.6484375 -0.09765625 C51.43395996 -0.10289307 52.21948242 -0.10812988 53.02880859 -0.11352539 C55 0 55 0 57 1 C57.39403062 8.74926882 55.93379502 15.51531152 54 23 C53.67 24.32 53.34 25.64 53 27 C49.37 27 45.74 27 42 27 C42.60299164 19.76410027 44.1150587 13.00629124 46 6 C42.37 6 38.74 6 35 6 C35.0825 7.155 35.165 8.31 35.25 9.5 C35.24134149 14.38340059 33.75619568 18.00307315 31 22 C26.59374423 26.09152321 24.08335001 27.12657449 18.15234375 27.1328125 C16.99025391 27.13410156 15.82816406 27.13539062 14.63085938 27.13671875 C13.41205078 27.13285156 12.19324219 27.12898438 10.9375 27.125 C9.71482422 27.12886719 8.49214844 27.13273437 7.23242188 27.13671875 C6.07162109 27.13542969 4.91082031 27.13414063 3.71484375 27.1328125 C2.64355225 27.13168457 1.57226074 27.13055664 0.46850586 27.12939453 C-2 27 -2 27 -3 26 C-3.27939623 21.43652823 -2.730123 17.65533676 -1.51171875 13.265625 C-0.52636963 8.90301059 -0.33390497 4.45206628 0 0 Z " fill="#FCF4F5" transform="translate(43,77)"/>
<path d="M0 0 C1.07587169 -0.00512655 2.15174338 -0.0102531 3.26021725 -0.015535 C6.85980573 -0.02540611 10.45771068 0.00756342 14.05714417 0.04037476 C16.63942424 0.04206742 19.2217072 0.04111678 21.8039856 0.03771973 C27.36054295 0.03457822 32.91667659 0.053354 38.47312737 0.08714676 C46.50668091 0.13597268 54.54003021 0.15154186 62.57371605 0.15907471 C75.60867273 0.17219659 88.64340373 0.21209918 101.67823792 0.26889038 C114.33805718 0.32399023 126.99781509 0.36644814 139.6577301 0.39193726 C140.43848388 0.3935136 141.21923766 0.39508994 142.02365064 0.39671405 C145.94058248 0.40454444 149.85751476 0.41212665 153.77444732 0.41958547 C186.25369088 0.48175498 218.7326578 0.58740676 251.21168518 0.7215271 C251.21168518 1.0515271 251.21168518 1.3815271 251.21168518 1.7215271 C249.89362853 1.72391545 248.57557188 1.72630381 247.21757412 1.72876453 C215.92776243 1.78612755 184.63802805 1.85886034 153.34829902 1.95051338 C149.4968532 1.96178151 145.64540701 1.97291997 141.79396057 1.98397827 C141.02720875 1.98618195 140.26045692 1.98838564 139.4704702 1.9906561 C127.05624564 2.026026 114.64202115 2.05089186 102.2277649 2.07187412 C89.48906098 2.09363863 76.75042243 2.12669522 64.01177412 2.17022866 C56.1516938 2.1967342 48.29169494 2.21443764 40.43157215 2.22087314 C34.40384607 2.22675198 28.37628061 2.24834355 22.34860992 2.27580261 C19.87628782 2.28460397 17.40394152 2.2883011 14.93160439 2.28653526 C11.55758143 2.28488614 8.18412587 2.30155192 4.81018066 2.32279968 C3.83059684 2.31795211 2.85101302 2.31310453 1.84174484 2.30811006 C-3.8009603 2.36680147 -7.81012597 2.99532931 -12.78831482 5.7215271 C-16.896531 10.15407614 -17.91207582 12.6841416 -17.94221497 18.64074707 C-17.95081543 19.90247238 -17.95941589 21.16419769 -17.96827698 22.4641571 C-17.97271241 23.87042195 -17.97701075 25.27668724 -17.98118591 26.68295288 C-17.98908613 28.15793552 -17.99735503 29.63291623 -18.00596619 31.1078949 C-18.03220304 35.96085765 -18.04749883 40.81382908 -18.06175232 45.6668396 C-18.06711195 47.33764527 -18.07248946 49.00845088 -18.07788467 50.67925644 C-18.09951884 57.63121607 -18.11825405 64.58317337 -18.12950706 71.53515816 C-18.1457349 81.49508364 -18.17887792 91.45461827 -18.23590791 101.41439641 C-18.27464277 108.41832549 -18.29414413 115.42215021 -18.29942763 122.42618358 C-18.30307723 126.6083776 -18.31505568 130.7901549 -18.34753036 134.97223282 C-18.37767252 138.9105589 -18.38390134 142.84821753 -18.37214661 146.78663445 C-18.37192636 148.22815251 -18.38019117 149.66970207 -18.39780045 151.11111259 C-18.4804699 158.27080672 -18.54411737 164.18231439 -14.34983253 170.19668388 C-9.11873006 175.30492636 -4.31743609 175.15423975 2.64559937 175.12025452 C3.70751155 175.12690134 4.76942374 175.13354817 5.86351508 175.14039642 C9.4273413 175.15907204 12.99083313 175.15641799 16.55470276 175.15390015 C19.1071368 175.16291449 21.6595665 175.17324089 24.21199036 175.18478394 C29.71003992 175.20669103 35.20799021 175.21945577 40.70607948 175.22391319 C48.65534735 175.23037363 56.60450064 175.25330911 64.55372234 175.28025649 C77.45100569 175.3235305 90.34828421 175.35349374 103.24562073 175.37509155 C115.77363964 175.39609941 128.30161908 175.4233728 140.8296051 175.45907593 C141.98808246 175.46237417 141.98808246 175.46237417 143.1699634 175.46573903 C147.04448498 175.47680864 150.91900619 175.48800146 154.79352725 175.49925554 C186.93288032 175.59244933 219.07224771 175.66404326 251.21168518 175.7215271 C251.21168518 176.0515271 251.21168518 176.3815271 251.21168518 176.7215271 C217.97067592 176.88178212 184.72976284 177.00511127 151.488453 177.07898441 C147.56318862 177.08773925 143.63792499 177.09679952 139.71266174 177.10604858 C138.54049786 177.10880284 138.54049786 177.10880284 137.3446539 177.11161274 C124.69494779 177.14206423 112.04546458 177.19725183 99.39589065 177.26159667 C86.41428347 177.32707927 73.43279295 177.36594315 60.45102739 177.38014656 C52.4417474 177.38974705 44.43309744 177.42005755 36.42401141 177.47694237 C30.28046292 177.5183519 24.1373938 177.52270797 17.99372482 177.51328087 C15.47500607 177.51520725 12.95626355 177.52913966 10.43768692 177.55596542 C6.99766614 177.59080955 3.56033794 177.58241761 0.12025452 177.56330872 C-0.87587121 177.58369861 -1.87199693 177.6040885 -2.89830828 177.62509626 C-9.23070515 177.53005119 -12.7531751 176.14441473 -17.25877506 171.62391096 C-20.80934395 167.2078473 -21.03876918 162.79689156 -21.04901123 157.30783081 C-21.05609604 156.03771652 -21.06318085 154.76760223 -21.07048035 153.45899963 C-21.06818688 152.06408655 -21.06567722 150.66917382 -21.06297302 149.27426147 C-21.06732337 147.79544315 -21.0725076 146.31662707 -21.07846069 144.83781433 C-21.0918256 140.83167068 -21.09243229 136.82562151 -21.08989739 132.81945992 C-21.08882622 129.47197955 -21.09371468 126.1245182 -21.09850281 122.77704191 C-21.1095888 114.87945345 -21.11004018 106.98191255 -21.10398865 99.08432007 C-21.0979455 90.94200121 -21.11027055 82.799855 -21.13155872 74.65756559 C-21.14917905 67.66036997 -21.15517549 60.66322928 -21.15192097 53.66601229 C-21.15010904 49.48966048 -21.15273551 45.3134319 -21.16663551 41.13710022 C-21.17921671 37.21031933 -21.17726714 33.28380766 -21.16422462 29.35703087 C-21.16186011 27.91791887 -21.16458908 26.47878789 -21.17284775 25.03969765 C-21.18332621 23.07156445 -21.17340579 21.10335446 -21.16253662 19.13522339 C-21.16270436 18.03502113 -21.1628721 16.93481888 -21.16304493 15.80127716 C-20.42803968 9.76057643 -17.57410948 5.62980901 -12.90294063 1.89459872 C-8.8117911 -0.3749335 -4.57410145 -0.08001873 0 0 Z " fill="#072054" transform="translate(20.788314819335938,0.278472900390625)"/>
<path d="M0 0 C4.46438301 5.57832959 3.58178469 12.71744197 3.5292511 19.49485779 C3.53902776 21.03955818 3.5513373 22.58424431 3.565979 24.12890625 C3.59752582 28.31098209 3.59113587 32.49219211 3.57589936 36.67432857 C3.56673137 40.17083821 3.57646165 43.66719061 3.58623809 47.16369063 C3.60912594 55.41485218 3.60159309 63.66559566 3.57417297 71.91673279 C3.5463717 80.41777753 3.56572676 88.91776881 3.60904866 97.41872495 C3.64486327 104.72856782 3.65336278 112.0380865 3.63965625 119.3480044 C3.63162432 123.70901685 3.63334268 128.06943952 3.66051674 132.4303875 C3.68471828 136.53244301 3.67459547 140.63303663 3.63852882 144.73499107 C3.63090138 146.23614019 3.63507026 147.73740507 3.65220261 149.2384758 C3.78534056 161.95735573 3.78534056 161.95735573 -0.56860352 167.21704102 C-3.62867957 170.26467235 -6.13208068 171.20689293 -10.42049479 171.4410134 C-11.20575644 171.43759591 -11.99101808 171.43417843 -12.80007553 171.43065739 C-13.71023918 171.42916504 -14.62040283 171.42767269 -15.55814719 171.42613512 C-16.55425143 171.41933133 -17.55035568 171.41252754 -18.5766449 171.40551758 C-19.63770266 171.40228845 -20.69876042 171.39905932 -21.79197145 171.39573234 C-25.35884295 171.38363749 -28.92563822 171.36426862 -32.49247742 171.34495544 C-35.04475742 171.33481475 -37.59703923 171.32512086 -40.14932251 171.31584167 C-45.65011609 171.29483457 -51.15088204 171.27070983 -56.65164948 171.24376106 C-64.60484427 171.204803 -72.55805479 171.17144936 -80.51128033 171.1394658 C-93.41469935 171.08742294 -106.31809434 171.03084438 -119.22148132 170.97142029 C-131.75630254 170.91370325 -144.29113021 170.85811811 -156.82597351 170.80540466 C-157.59855447 170.80215494 -158.37113543 170.79890522 -159.16712794 170.79555703 C-163.04291971 170.7792674 -166.91871165 170.76301972 -170.79450369 170.74679291 C-202.95069406 170.61211004 -235.10684801 170.47006904 -267.26298523 170.32322693 C-267.26298523 169.99322693 -267.26298523 169.66322693 -267.26298523 169.32322693 C-266.71722741 169.32262984 -266.17146959 169.32203275 -265.60917366 169.32141757 C-233.26743801 169.28552832 -200.92581485 169.22889666 -168.5841692 169.14530598 C-164.70139211 169.13528845 -160.8186146 169.12544433 -156.93583679 169.1157074 C-156.16284143 169.11376602 -155.38984607 169.11182465 -154.5934266 169.10982445 C-142.0750558 169.07879824 -129.55670334 169.06182207 -117.03830133 169.05003271 C-104.19449907 169.03762435 -91.35079308 169.01013013 -78.50705159 168.96861386 C-70.58091627 168.94346934 -62.65494061 168.93011034 -54.72876485 168.93179736 C-48.65227214 168.93183061 -42.57603715 168.91088095 -36.49960518 168.8820591 C-34.00590083 168.87352676 -31.51216246 168.87183262 -29.01844978 168.87742424 C-25.6176593 168.88403517 -22.21784599 168.86621173 -18.81715393 168.84220886 C-17.82687537 168.84996928 -16.83659681 168.8577297 -15.81630981 168.86572528 C-10.16468321 168.79495155 -6.64638338 168.2660372 -2.26298523 164.32322693 C0.12533758 161.05964602 -0.0095254 157.99681175 -0.00228882 154.02941895 C0.00479599 152.73536636 0.0118808 151.44131378 0.0191803 150.10804749 C0.01688652 148.67594875 0.01437683 147.24385034 0.01167297 145.81175232 C0.01602065 144.30205025 0.02120398 142.79235039 0.02716064 141.28265381 C0.04055583 137.18348728 0.04112875 133.08441293 0.03859735 128.98522878 C0.037528 125.5631948 0.04241005 122.14117951 0.04720277 118.71914953 C0.05829971 110.64616178 0.05873428 102.57322057 0.0526886 94.50022888 C0.0466474 86.17161712 0.05896305 77.84317423 0.08025867 69.51459128 C0.09787067 62.36373761 0.10387667 55.21293772 0.10062093 48.06206316 C0.09880731 43.79125817 0.10145202 39.52057364 0.11533546 35.24978828 C0.12790273 31.23357439 0.12598027 27.21762391 0.11292458 23.20141411 C0.11055684 21.72802008 0.11330056 20.25460759 0.1215477 18.78123474 C0.1319991 16.76885355 0.1221208 14.75639745 0.11123657 12.74401855 C0.11140431 11.61817384 0.11157206 10.49232912 0.11174488 9.3323679 C-0.44115732 4.8924774 -1.9617045 2.46342267 -5.30311108 -0.46435261 C-9.72474397 -2.27553711 -13.88591021 -2.09879392 -18.62097168 -2.07550049 C-19.67471676 -2.08214732 -20.72846184 -2.08879414 -21.81413859 -2.09564239 C-25.35032651 -2.11431705 -28.8861774 -2.11166402 -32.42240906 -2.10914612 C-34.95513895 -2.11816052 -37.48786447 -2.12848694 -40.02058411 -2.14002991 C-45.47607198 -2.16193654 -50.9314598 -2.17470165 -56.38698769 -2.17915916 C-64.27471779 -2.18561974 -72.16233243 -2.20855544 -80.05001601 -2.23550246 C-92.84747063 -2.27877596 -105.64492039 -2.30873949 -118.44242859 -2.33033752 C-130.87344248 -2.35134553 -143.30441659 -2.37861906 -155.73539734 -2.4143219 C-156.50174158 -2.41652072 -157.26808583 -2.41871955 -158.05765263 -2.42098501 C-161.90220607 -2.43205461 -165.74675914 -2.44324743 -169.59131205 -2.45450151 C-201.481837 -2.54769458 -233.37237572 -2.61906716 -265.26298523 -2.67677307 C-265.26298523 -3.00677307 -265.26298523 -3.33677307 -265.26298523 -3.67677307 C-232.60786364 -3.84989091 -199.95271128 -4.01269895 -167.29746841 -4.161086 C-163.44344437 -4.17860799 -159.58942073 -4.19621801 -155.73539734 -4.21388245 C-154.96812089 -4.21739768 -154.20084445 -4.22091292 -153.4103172 -4.22453468 C-140.981766 -4.28168542 -128.55326139 -4.34596979 -116.12475935 -4.41288407 C-103.37483556 -4.48137032 -90.62489187 -4.54220536 -77.87489718 -4.59591711 C-70.00556257 -4.62930994 -62.1363045 -4.6686919 -54.26703926 -4.71570145 C-48.23594624 -4.75109129 -42.20485777 -4.77584296 -36.17369461 -4.79658699 C-33.69727709 -4.80677972 -31.22087114 -4.82044958 -28.74449348 -4.83780861 C-25.36994747 -4.86094992 -21.9955832 -4.87171327 -18.62097168 -4.87931824 C-17.63556217 -4.88903487 -16.65015267 -4.8987515 -15.63488227 -4.90876257 C-9.48582717 -4.90537483 -4.56497124 -4.54515627 0 0 Z " fill="#677D9A" transform="translate(280.2629852294922,5.6767730712890625)"/>
<path d="M0 0 C3.96 0 7.92 0 12 0 C11.38176417 7.10971201 10.34784928 13.99118377 9 21 C14.28 20.67 19.56 20.34 25 20 C27.2686416 14.70650292 28.45869043 11.50054062 29.1875 6.0625 C29.34605469 4.91910156 29.50460938 3.77570313 29.66796875 2.59765625 C29.77753906 1.74042969 29.88710937 0.88320312 30 0 C33.63 0 37.26 0 41 0 C41.34462752 9.19006719 40.67098874 16.36597669 35 24 C30.84478233 27.1444377 27.69012282 27.36487154 22.546875 27.328125 C21.84604797 27.32625183 21.14522095 27.32437866 20.42315674 27.32244873 C18.95067545 27.31575582 17.47821112 27.30189647 16.00585938 27.28125 C13.74332303 27.24990751 11.4814826 27.24025732 9.21875 27.234375 C-1.83635046 27.16364954 -1.83635046 27.16364954 -3 26 C-4.03272487 17.24169873 -1.77584793 8.51984187 0 0 Z " fill="#F6F7F8" transform="translate(187,77)"/>
<path d="M0 0 C11.5812647 -1.06825721 11.5812647 -1.06825721 14.9765625 1.48828125 C16.67540394 3.88752224 18 5.99634395 18 9 C18.66 9 19.32 9 20 9 C20.33 6.03 20.66 3.06 21 0 C24.63 0 28.26 0 32 0 C32.46460177 10.22123894 32.46460177 10.22123894 29 15 C26.38671875 15.65625 26.38671875 15.65625 24 16 C24.433125 16.62648438 24.86625 17.25296875 25.3125 17.8984375 C25.869375 18.71570313 26.42625 19.53296875 27 20.375 C27.556875 21.18710938 28.11375 21.99921875 28.6875 22.8359375 C30 25 30 25 30 27 C25.55148592 27.53461371 21.42438424 27.80491176 17 27 C14.67871025 24.81500616 13.46724603 22.81045024 12.05078125 19.96875 C11.70402344 19.3190625 11.35726562 18.669375 11 18 C10.34 18 9.68 18 9 18 C8.86722656 18.56589844 8.73445312 19.13179687 8.59765625 19.71484375 C8.42105469 20.44832031 8.24445313 21.18179688 8.0625 21.9375 C7.88847656 22.66839844 7.71445313 23.39929688 7.53515625 24.15234375 C7 26 7 26 6 27 C4.14712498 27.07226502 2.29166122 27.0838122 0.4375 27.0625 C-0.57441406 27.05347656 -1.58632812 27.04445313 -2.62890625 27.03515625 C-3.41136719 27.02355469 -4.19382812 27.01195313 -5 27 C-3.0856497 14.34276624 -3.0856497 14.34276624 0 10 C1.65 9.67 3.3 9.34 5 9 C3.35 6.03 1.7 3.06 0 0 Z " fill="#FBF7F8" transform="translate(128,77)"/>
<path d="M0 0 C1.98 1.65 3.96 3.3 6 5 C5.67 5.99 5.34 6.98 5 8 C10.61 8.33 16.22 8.66 22 9 C22 9.33 22 9.66 22 10 C15.73 10 9.46 10 3 10 C3 11.98 3 13.96 3 16 C5.97 16 8.94 16 12 16 C11.78465008 29.78239485 -1.22567654 38.34941154 -10.4375 47.5 C-11.75479059 48.81226585 -13.07184986 50.12476395 -14.38867188 51.4375 C-17.5897861 54.62768506 -20.79401865 57.81470651 -24 61 C-25.32 60.34 -26.64 59.68 -28 59 C-25.64290747 53.59972721 -21.33393934 49.88563477 -17.25 45.75 C-16.45078125 44.90953125 -15.6515625 44.0690625 -14.828125 43.203125 C-14.044375 42.4090625 -13.260625 41.615 -12.453125 40.796875 C-11.74317383 40.06823242 -11.03322266 39.33958984 -10.30175781 38.58886719 C-7.37821647 36.57079262 -5.47791522 36.69675874 -2 37 C-2.433125 36.37351563 -2.86625 35.74703125 -3.3125 35.1015625 C-3.869375 34.28429687 -4.42625 33.46703125 -5 32.625 C-5.556875 31.81289062 -6.11375 31.00078125 -6.6875 30.1640625 C-8 28 -8 28 -8 26 C-6.824375 25.6596875 -6.824375 25.6596875 -5.625 25.3125 C-2.89400364 24.23855216 -2.89400364 24.23855216 -1.75 21.9375 C-0.73570477 17.96484368 -0.36579039 14.08465932 0 10 C-3.63 10 -7.26 10 -11 10 C-10.29875 9.46375 -9.5975 8.9275 -8.875 8.375 C-5.69584371 5.74874046 -2.880978 2.94797749 0 0 Z " fill="#C51016" transform="translate(160,67)"/>
<path d="M0 0 C0.77279297 -0.02900391 1.54558594 -0.05800781 2.34179688 -0.08789062 C6.09865431 -0.12988473 8.05348243 -0.14479142 11.16796875 2.1015625 C13.41704979 5.37400432 13.97463204 8.429381 13.6875 12.3125 C12.02110532 18.19389298 9.27195997 22.34756165 4.6875 26.3125 C4.3575 26.6425 4.0275 26.9725 3.6875 27.3125 C2.34482587 27.39881874 0.99775678 27.41956473 -0.34765625 27.41015625 C-1.15654297 27.40693359 -1.96542969 27.40371094 -2.79882812 27.40039062 C-3.64896484 27.39201172 -4.49910156 27.38363281 -5.375 27.375 C-6.22900391 27.37048828 -7.08300781 27.36597656 -7.96289062 27.36132812 C-10.07945663 27.34950373 -12.19598685 27.33156769 -14.3125 27.3125 C-13.9825 25.3325 -13.6525 23.3525 -13.3125 21.3125 C-12.63703125 21.29832031 -11.9615625 21.28414062 -11.265625 21.26953125 C-5.57204361 20.99811818 -5.57204361 20.99811818 -0.6875 18.3125 C1.24378747 14.09878189 0.96284199 10.92447842 0.6875 6.3125 C-2.6125 6.3125 -5.9125 6.3125 -9.3125 6.3125 C-9.3125 -1.49383487 -6.69043507 0.08246222 0 0 Z " fill="#F8F1F2" transform="translate(112.3125,76.6875)"/>
<path d="M0 0 C3.12492251 -0.05791844 6.24970766 -0.09356746 9.375 -0.125 C10.26445312 -0.14175781 11.15390625 -0.15851563 12.0703125 -0.17578125 C12.92109375 -0.18222656 13.771875 -0.18867187 14.6484375 -0.1953125 C15.82672119 -0.21102295 15.82672119 -0.21102295 17.02880859 -0.22705078 C19 0 19 0 21 2 C21.36367575 10.225999 18.69949906 18.983495 17 27 C13.04 27 9.08 27 5 27 C6.32 20.07 7.64 13.14 9 6 C6.03 6 3.06 6 0 6 C0 4.02 0 2.04 0 0 Z " fill="#F7F4F5" transform="translate(163,77)"/>
<path d="M0 0 C0.66 1.32 1.32 2.64 2 4 C2.96031572 5.26041438 3.96152737 6.49066029 5 7.6875 C5.7734375 8.59048828 5.7734375 8.59048828 6.5625 9.51171875 C8.31114381 11.32213531 9.40115929 11.95930412 11.92193663 12.13061053 C12.71403324 12.13326857 13.50612985 12.13592661 14.32222939 12.1386652 C15.23537773 12.14413964 16.14852607 12.14961409 17.08934557 12.15525442 C18.0990574 12.15623253 19.10876922 12.15721064 20.14907837 12.15821838 C21.21659438 12.16315636 22.2841104 12.16809434 23.38397539 12.17318195 C26.98466034 12.18862076 30.58532737 12.1969348 34.18603516 12.20532227 C36.75772765 12.21489578 39.32941856 12.22490554 41.90110779 12.23532104 C47.44992957 12.25710198 52.99875375 12.27524054 58.54759598 12.29092598 C66.57035277 12.3136099 74.59308304 12.34175476 82.61581735 12.37124526 C95.63123633 12.41893931 108.64666613 12.46219857 121.66210938 12.50268555 C134.30762577 12.54203125 146.95313252 12.58345525 159.59863281 12.62768555 C160.37771321 12.63040982 161.15679361 12.63313409 161.95948251 12.63594092 C165.86778395 12.64962024 169.77608526 12.66334055 173.68438649 12.67708123 C206.12290447 12.79107449 238.56144245 12.89787753 271 13 C271 13.33 271 13.66 271 14 C181.57 14 92.14 14 0 14 C0 9.38 0 4.76 0 0 Z " fill="#294C73" transform="translate(0,164)"/>
<path d="M0 0 C4.62 0 9.24 0 14 0 C14 58.74 14 117.48 14 178 C9.71 178 5.42 178 1 178 C2.485 177.01 2.485 177.01 4 176 C5.2226758 175.017588 6.43055528 174.0165487 7.625 173 C8.54152344 172.2265625 8.54152344 172.2265625 9.4765625 171.4375 C11.65652955 169.38050545 11.98380341 168.31880057 12.13701439 165.30311966 C12.14258669 164.14760983 12.14815899 162.99209999 12.15390015 161.80157471 C12.1582824 161.15889798 12.16266465 160.51622125 12.1671797 159.85406947 C12.18058251 157.690796 12.18674987 155.52756328 12.19287109 153.36425781 C12.20077094 151.81706558 12.20903981 150.2698752 12.21765137 148.72268677 C12.24388645 143.63285078 12.25918107 138.54300651 12.2734375 133.453125 C12.27879668 131.7017898 12.28417419 129.95045466 12.28956985 128.19911957 C12.31120129 120.91431517 12.32993816 113.629513 12.34119225 106.3446846 C12.35743202 95.90080137 12.39060729 85.45729016 12.44759309 75.01354718 C12.48628474 67.67249711 12.50582404 60.33154658 12.51111281 52.99039721 C12.51476753 48.60483104 12.52680108 44.21966151 12.55921555 39.83420563 C12.58928254 35.70711596 12.59561319 31.58066321 12.58383179 27.4534874 C12.58361093 25.94017793 12.59192624 24.42683904 12.60948563 22.91363144 C13.05852383 13.99686904 13.05852383 13.99686904 9.5897522 6.1305542 C7.43237281 4.35570728 5.79938695 3.04684245 3.1875 2.125 C1.6096875 1.568125 1.6096875 1.568125 0 1 C0 0.67 0 0.34 0 0 Z " fill="#36577B" transform="translate(270,0)"/>
<path d="M0 0 C1 4 1 4 0.03198242 6.76220703 C-2.64534969 11.02831042 -5.92325754 14.29488863 -9.51171875 17.8046875 C-10.23994339 18.5286673 -10.96816803 19.25264709 -11.71846008 19.99856567 C-14.03449799 22.29787843 -16.36077236 24.58651005 -18.6875 26.875 C-20.26436013 28.43680542 -21.84053986 29.99929812 -23.41601562 31.5625 C-27.26949865 35.38299553 -31.13142867 39.19478664 -35 43 C-36.32 42.34 -37.64 41.68 -39 41 C-36.64290747 35.59972721 -32.33393934 31.88563477 -28.25 27.75 C-27.45078125 26.90953125 -26.6515625 26.0690625 -25.828125 25.203125 C-24.6525 24.01203125 -24.6525 24.01203125 -23.453125 22.796875 C-22.74317383 22.06823242 -22.03322266 21.33958984 -21.30175781 20.58886719 C-18.37821647 18.57079262 -16.47791522 18.69675874 -13 19 C-13.66 17.68 -14.32 16.36 -15 15 C-10.05 10.05 -5.1 5.1 0 0 Z " fill="#162855" transform="translate(171,85)"/>
<path d="M0 0 C1.65 1.32 3.3 2.64 5 4 C3.4608199 7.66752005 1.24514548 9.98580573 -1.5703125 12.765625 C-2.46621094 13.65507813 -3.36210937 14.54453125 -4.28515625 15.4609375 C-5.22230469 16.38132812 -6.15945312 17.30171875 -7.125 18.25 C-8.07988637 19.19484856 -9.03431859 20.14015633 -9.98828125 21.0859375 C-12.32109087 23.39518338 -14.65844086 25.69963203 -17 28 C-22.75 26.125 -22.75 26.125 -25 25 C-16.75 16.75 -8.5 8.5 0 0 Z " fill="#C10E15" transform="translate(143,50)"/>
<path d="M0 0 C3.96 0 7.92 0 12 0 C11.60339997 7.1388005 10.55827293 11.80171812 7 18 C4.03 18 1.06 18 -2 18 C-1.33333333 12 -0.66666667 6 0 0 Z " fill="#EEF0F3" transform="translate(202,77)"/>
<path d="M0 0 C0.33 0 0.66 0 1 0 C1 1.65 1 3.3 1 5 C2.7015625 4.9690625 2.7015625 4.9690625 4.4375 4.9375 C8 5 8 5 9 6 C9.38600183 10.55482158 9.30471206 13.22436931 7.625 17.5 C4.57507304 20.40469235 3.80027151 20.36352614 -0.25 20.375 C-1.83534259 20.27877979 -3.4201072 20.16281338 -5 20 C-4.03644647 8.47835991 -4.03644647 8.47835991 -3 3 C-2.34 3.33 -1.68 3.66 -1 4 C-0.67 2.68 -0.34 1.36 0 0 Z " fill="#C5181D" transform="translate(57,78)"/>
<path d="M0 0 C2.05058235 0.99866023 3.31444208 2.16512402 4.8046875 3.87890625 C3.14605245 8.20395461 -0.0663535 10.9730945 -3.3203125 14.12890625 C-3.88363281 14.68320313 -4.44695312 15.2375 -5.02734375 15.80859375 C-6.41217278 17.1699511 -7.80314454 18.52505484 -9.1953125 19.87890625 C-9.8553125 19.54890625 -10.5153125 19.21890625 -11.1953125 18.87890625 C-11.1953125 18.21890625 -11.1953125 17.55890625 -11.1953125 16.87890625 C-13.5053125 16.87890625 -15.8153125 16.87890625 -18.1953125 16.87890625 C-14.63503286 12.56909405 -10.92549291 8.42798626 -7.0703125 4.37890625 C-6.24273437 3.50234375 -5.41515625 2.62578125 -4.5625 1.72265625 C-2.1953125 -0.12109375 -2.1953125 -0.12109375 0 0 Z " fill="#B80E17" transform="translate(152.1953125,59.12109375)"/>
<path d="M0 0 C0.33 -0.33 0.66 -0.66 1 -1 C3.35313555 -1.07271741 5.70833668 -1.08370868 8.0625 -1.0625 C9.35285156 -1.05347656 10.64320313 -1.04445313 11.97265625 -1.03515625 C12.97167969 -1.02355469 13.97070312 -1.01195313 15 -1 C15 -0.67 15 -0.34 15 0 C9.06 0.495 9.06 0.495 3 1 C3.66 1.94875 4.32 2.8975 5 3.875 C7 7 7 7 7 9 C6.22011719 9.19980469 5.44023437 9.39960937 4.63671875 9.60546875 C1.7417328 10.7917253 1.7417328 10.7917253 0.70703125 13.86328125 C0.41183594 15.00152344 0.11664063 16.13976562 -0.1875 17.3125 C-3.24417731 28.71975958 -3.24417731 28.71975958 -8 33 C-8.99 32.67 -9.98 32.34 -11 32 C-10.42137365 28.09427217 -8.47900791 25.98939189 -6 23 C-2.76232731 18.14349097 -0.65655904 13.72869926 -1.1875 7.8125 C-2.05236007 3.62852763 -2.05236007 3.62852763 -5 1 C-6.91965648 0.50176904 -6.91965648 0.50176904 -9.01171875 0.48828125 C-9.76904297 0.45283203 -10.52636719 0.41738281 -11.30664062 0.38085938 C-12.48516602 0.34702148 -12.48516602 0.34702148 -13.6875 0.3125 C-14.48478516 0.27833984 -15.28207031 0.24417969 -16.10351562 0.20898438 C-18.06851904 0.12661896 -20.03423696 0.06162933 -22 0 C-22 -0.33 -22 -0.66 -22 -1 C-19.45886142 -1.22333047 -16.91827416 -1.42902091 -14.375 -1.625 C-13.66214844 -1.68945312 -12.94929688 -1.75390625 -12.21484375 -1.8203125 C-7.65511601 -2.15497142 -4.31311418 -1.78239103 0 0 Z " fill="#BF151A" transform="translate(126,77)"/>
<path d="M0 0 C1.98 1.65 3.96 3.3 6 5 C5.67 5.99 5.34 6.98 5 8 C10.61 8.33 16.22 8.66 22 9 C22 9.33 22 9.66 22 10 C15.73 10 9.46 10 3 10 C3 11.98 3 13.96 3 16 C2.01 16.66 1.02 17.32 0 18 C0 15.36 0 12.72 0 10 C-3.63 10 -7.26 10 -11 10 C-10.29875 9.46375 -9.5975 8.9275 -8.875 8.375 C-5.69584371 5.74874046 -2.880978 2.94797749 0 0 Z " fill="#744760" transform="translate(160,67)"/>
<path d="M0 0 C0.66 0 1.32 0 2 0 C2.66 1.32 3.32 2.64 4 4 C-1.61 9.61 -7.22 15.22 -13 21 C-14.32 20.34 -15.64 19.68 -17 19 C-17 18.34 -17 17.68 -17 17 C-15.64453125 15.66796875 -15.64453125 15.66796875 -13.8125 14.1875 C-9.57744404 10.66822814 -5.76394061 6.98419138 -2.3125 2.6875 C-1.1678125 1.3571875 -1.1678125 1.3571875 0 0 Z " fill="#0D2957" transform="translate(140,98)"/>
<path d="M0 0 C0.99 0.66 1.98 1.32 3 2 C3.85983191 8.14165649 1.92323286 11.79299148 -1 17 C-6.28 17 -11.56 17 -17 17 C-16.505 15.515 -16.505 15.515 -16 14 C-10.06 13.505 -10.06 13.505 -4 13 C-1.97944157 8.60748167 -0.59104765 4.84659077 0 0 Z " fill="#253B68" transform="translate(213,81)"/>
<path d="M0 0 C0.99 0.33 1.98 0.66 3 1 C3.34740318 3.91818671 3.50109494 6.13765057 1.9921875 8.734375 C0.6875 10.375 0.6875 10.375 -2 13 C-2.99 13 -3.98 13 -5 13 C-5 12.34 -5 11.68 -5 11 C-6.65 11 -8.3 11 -10 11 C-6.79239749 7.19364503 -3.59253891 3.45436433 0 0 Z " fill="#BF0F16" transform="translate(111,85)"/>
<path d="M0 0 C4.62 0 9.24 0 14 0 C14 4.29 14 8.58 14 13 C13.34 12.01 12.68 11.02 12 10 C8.38760383 5.04585667 5.78197681 3.0406977 0 1 C0 0.67 0 0.34 0 0 Z " fill="#F2F4F6" transform="translate(270,0)"/>
<path d="M0 0 C0.66 1.32 1.32 2.64 2 4 C5.05057385 8.24038711 7.77204763 11.61613025 13 13 C13 13.33 13 13.66 13 14 C8.71 14 4.42 14 0 14 C0 9.38 0 4.76 0 0 Z " fill="#EFF1F4" transform="translate(0,164)"/>
<path d="M0 0 C0.33 -0.33 0.66 -0.66 1 -1 C3.35313555 -1.07271741 5.70833668 -1.08370868 8.0625 -1.0625 C9.35285156 -1.05347656 10.64320313 -1.04445313 11.97265625 -1.03515625 C12.97167969 -1.02355469 13.97070312 -1.01195313 15 -1 C15 -0.67 15 -0.34 15 0 C9.06 0.495 9.06 0.495 3 1 C3.33 1.99 3.66 2.98 4 4 C2.35 4.99 0.7 5.98 -1 7 C-1.474375 6.195625 -1.94875 5.39125 -2.4375 4.5625 C-3.76900154 2.15246512 -3.76900154 2.15246512 -5 1 C-7.85877909 0.76298761 -10.69883297 0.57780818 -13.5625 0.4375 C-14.36880859 0.39431641 -15.17511719 0.35113281 -16.00585938 0.30664062 C-18.00368805 0.20024738 -20.0018207 0.09959112 -22 0 C-22 -0.33 -22 -0.66 -22 -1 C-19.45886142 -1.22333047 -16.91827416 -1.42902091 -14.375 -1.625 C-13.66214844 -1.68945312 -12.94929688 -1.75390625 -12.21484375 -1.8203125 C-7.65511601 -2.15497142 -4.31311418 -1.78239103 0 0 Z " fill="#795B71" transform="translate(126,77)"/>
<path d="M0 0 C0.33 0 0.66 0 1 0 C1 4.29 1 8.58 1 13 C-3.29 13 -7.58 13 -12 13 C-11.01 12.34 -10.02 11.68 -9 11 C-3.10926423 6.5531776 -3.10926423 6.5531776 0 0 Z " fill="#F3F5F7" transform="translate(283,165)"/>
<path d="M0 0 C4.29 0 8.58 0 13 0 C12.01 0.66 11.02 1.32 10 2 C4.10926423 6.4468224 4.10926423 6.4468224 1 13 C0.67 13 0.34 13 0 13 C0 8.71 0 4.42 0 0 Z " fill="#F3F5F7" transform="translate(0,0)"/>
<path d="M0 0 C1.65 1.65 3.3 3.3 5 5 C2.78631706 7.21368294 1.06983375 8.86552921 -2.11328125 9.265625 C-4.07746787 9.25166986 -6.0402625 9.13286356 -8 9 C-7.04270084 7.87411986 -6.08412105 6.7493285 -5.125 5.625 C-4.59132812 4.99851562 -4.05765625 4.37203125 -3.5078125 3.7265625 C-2.38567993 2.44163349 -1.20628025 1.20628025 0 0 Z " fill="#C30C11" transform="translate(160,67)"/>
<path d="M0 0 C-0.93590504 1.1055189 -1.87379858 2.20935453 -2.8125 3.3125 C-3.59560547 4.23482422 -3.59560547 4.23482422 -4.39453125 5.17578125 C-7.3373102 8.51952278 -7.3373102 8.51952278 -9 10 C-9.66 10 -10.32 10 -11 10 C-11.31785906 6.50355037 -11.39644605 4.602598 -9.4375 1.625 C-6.18317497 -0.54455002 -3.82869586 -0.29451507 0 0 Z " fill="#162A57" transform="translate(110,83)"/>
<path d="M0 0 C0.99 0 1.98 0 3 0 C2.47462276 5.0302076 1.89405214 10.01885239 1 15 C-0.32 14.67 -1.64 14.34 -3 14 C-2.69249629 11.85344499 -2.3788634 9.70776715 -2.0625 7.5625 C-1.88847656 6.36753906 -1.71445313 5.17257813 -1.53515625 3.94140625 C-1 1 -1 1 0 0 Z " fill="#14305F" transform="translate(199,81)"/>
<path d="M0 0 C1 3 1 3 0.3125 5.4375 C-1.10279146 8.20068809 -2.70408875 9.93367987 -5 12 C-5.99 11.67 -6.98 11.34 -8 11 C-7.42429187 7.11397015 -5.58424279 4.88827136 -3 2 C-2.01 1.34 -1.02 0.68 0 0 Z " fill="#072657" transform="translate(123,98)"/>
<path d="M0 0 C-1.07924279 3.23772838 -1.75143068 3.86999864 -4.3125 5.9375 C-6.44465447 7.68953677 -8.38138355 9.39169122 -10.3125 11.375 C-12 13 -12 13 -14 13 C-14.33 10.69 -14.66 8.38 -15 6 C-14.67 7.32 -14.34 8.64 -14 10 C-12.72799029 8.89718873 -11.45744147 7.79269231 -10.1875 6.6875 C-9.47980469 6.07261719 -8.77210937 5.45773438 -8.04296875 4.82421875 C-6.0163477 3.07797698 -6.0163477 3.07797698 -4.42578125 1.26953125 C-3 0 -3 0 0 0 Z " fill="#C21B21" transform="translate(113,83)"/>
<path d="M0 0 C1.32 0.66 2.64 1.32 4 2 C2.39352601 5.79712033 0.54209184 9.74523229 -3 12 C-6.77343167 12.21790239 -10.29815225 11.71314055 -14 11 C-14 10.67 -14 10.34 -14 10 C-8.555 9.505 -8.555 9.505 -3 9 C-2.01 6.03 -1.02 3.06 0 0 Z " fill="#C0242A" transform="translate(137,94)"/>
<path d="M0 0 C0.66 0.33 1.32 0.66 2 1 C2.125 7.75 2.125 7.75 1 10 C0.34 10 -0.32 10 -1 10 C-2.98 6.535 -2.98 6.535 -5 3 C-2.625 1.4375 -2.625 1.4375 0 0 Z " fill="#132A58" transform="translate(147,76)"/>
<path d="M0 0 C2 3 2 3 1.5625 5.3125 C-0.60941815 9.04819921 -3.61941533 11.36965203 -7 14 C-8.32 13.34 -9.64 12.68 -11 12 C-10.45730469 11.72027344 -9.91460937 11.44054687 -9.35546875 11.15234375 C-3.95931183 8.12855131 -1.85566868 5.91494391 0 0 Z " fill="#2F4770" transform="translate(281,163)"/>
<path d="M0 0 C3.73122353 2.16931601 6.4574275 4.85102219 8.6875 8.5625 C8.5625 11.5 8.5625 11.5 7.6875 13.5625 C5.6875 10.5625 5.6875 10.5625 4.5625 8.125 C1.94625643 4.54946712 -1.30517111 3.26632867 -5.3125 1.5625 C-2.3125 -0.4375 -2.3125 -0.4375 0 0 Z " fill="#2B4670" transform="translate(274.3125,1.4375)"/>
<path d="M0 0 C0.33 0.66 0.66 1.32 1 2 C1.66 2 2.32 2 3 2 C2.34 6.95 1.68 11.9 1 17 C0.67 17 0.34 17 0 17 C0 15.35 0 13.7 0 12 C-0.66 12 -1.32 12 -2 12 C-1.34 8.04 -0.68 4.08 0 0 Z " fill="#1E3865" transform="translate(183,85)"/>
<path d="M0 0 C0.4125 0.556875 0.825 1.11375 1.25 1.6875 C1.8275 2.450625 2.405 3.21375 3 4 C3.639375 4.845625 4.27875 5.69125 4.9375 6.5625 C6.82148858 8.78903196 8.59870556 10.3705502 11 12 C10.01 12.33 9.02 12.66 8 13 C5.9921875 11.671875 5.9921875 11.671875 3.875 9.75 C3.17117187 9.12609375 2.46734375 8.5021875 1.7421875 7.859375 C0 6 0 6 -1 3 C-0.67 2.01 -0.34 1.02 0 0 Z " fill="#29436D" transform="translate(2,164)"/>
<path d="M0 0 C-0.53625 0.226875 -1.0725 0.45375 -1.625 0.6875 C-6.25400568 3.24563472 -10.06500434 6.59750651 -13 11 C-13.33 10.01 -13.66 9.02 -14 8 C-12.63671875 5.9921875 -12.63671875 5.9921875 -10.6875 3.875 C-10.05199219 3.17117187 -9.41648437 2.46734375 -8.76171875 1.7421875 C-5.6443101 -1.34066008 -4.11300403 -0.97413253 0 0 Z " fill="#243E69" transform="translate(15,2)"/>
<path d="M0 0 C0.66 0.33 1.32 0.66 2 1 C0.38405168 3.04119788 -1.2856382 5.04072937 -3 7 C-3.66 7 -4.32 7 -5 7 C-5 6.01 -5 5.02 -5 4 C-9.62 4 -14.24 4 -19 4 C-19 3.67 -19 3.34 -19 3 C-17.79601562 2.95101562 -16.59203125 2.90203125 -15.3515625 2.8515625 C-13.77601802 2.77653657 -12.20049834 2.70098867 -10.625 2.625 C-9.8309375 2.5940625 -9.036875 2.563125 -8.21875 2.53125 C-3.63332625 2.48183579 -3.63332625 2.48183579 0 0 Z " fill="#B92D35" transform="translate(118,101)"/>
<path d="M0 0 C0.33 0 0.66 0 1 0 C1.22786458 1.98567708 1.45572917 3.97135417 1.68359375 5.95703125 C1.97170735 8.19396393 1.97170735 8.19396393 3 11 C2.5625 13.6875 2.5625 13.6875 2 16 C1.01 16 0.02 16 -1 16 C-1.33 15.34 -1.66 14.68 -2 14 C-1.67 13.01 -1.34 12.02 -1 11 C-0.77820215 9.10787263 -0.59385985 7.21115528 -0.4375 5.3125 C-0.35371094 4.31863281 -0.26992187 3.32476562 -0.18359375 2.30078125 C-0.12300781 1.54152344 -0.06242188 0.78226562 0 0 Z " fill="#395179" transform="translate(228,77)"/>
<path d="M0 0 C0.99 0.33 1.98 0.66 3 1 C2.34 1 1.68 1 1 1 C0.7525 1.5775 0.505 2.155 0.25 2.75 C-1.16683317 5.3002997 -2.87627537 7.01785701 -5 9 C-5.99 8.67 -6.98 8.34 -8 8 C-5.36 5.36 -2.72 2.72 0 0 Z " fill="#AC0D1B" transform="translate(130,106)"/>
<path d="M0 0 C-0.66 0.66 -1.32 1.32 -2 2 C-2.66 1.34 -3.32 0.68 -4 0 C-6.89967757 -0.30675232 -9.71783178 -0.51173371 -12.625 -0.625 C-13.42679687 -0.66367188 -14.22859375 -0.70234375 -15.0546875 -0.7421875 C-17.03607556 -0.83653931 -19.01800645 -0.91936215 -21 -1 C-21 -1.33 -21 -1.66 -21 -2 C-18.4380143 -2.2498764 -15.87765869 -2.47541116 -13.3125 -2.6875 C-12.2306543 -2.79674805 -12.2306543 -2.79674805 -11.12695312 -2.90820312 C-6.44574473 -3.2715846 -3.74738294 -2.87521097 0 0 Z " fill="#AE4C55" transform="translate(125,78)"/>
<path d="M0 0 C0.99 0.99 1.98 1.98 3 3 C1.88625 3.6496875 1.88625 3.6496875 0.75 4.3125 C-1.61833926 5.76579909 -3.80924065 7.29607606 -6 9 C-6.66 8.67 -7.32 8.34 -8 8 C-5.36 5.36 -2.72 2.72 0 0 Z " fill="#B6101A" transform="translate(160,67)"/>
<path d="M0 0 C3.63 0 7.26 0 11 0 C10.67 1.32 10.34 2.64 10 4 C9.67 3.34 9.34 2.68 9 2 C6.03 2 3.06 2 0 2 C0 1.34 0 0.68 0 0 Z " fill="#C51C1F" transform="translate(78,83)"/>
<path d="M0 0 C0 2.31 0 4.62 0 7 C-1.32 6.67 -2.64 6.34 -4 6 C-3.625 3.5625 -3.625 3.5625 -3 1 C-1 0 -1 0 0 0 Z " fill="#0A2859" transform="translate(200,89)"/>
<path d="M0 0 C0.33 0.66 0.66 1.32 1 2 C-0.65 3.98 -2.3 5.96 -4 8 C-4.99 7.67 -5.98 7.34 -7 7 C-4.69 4.69 -2.38 2.38 0 0 Z " fill="#1E3C66" transform="translate(113,90)"/>
<path d="M0 0 C0.33 0 0.66 0 1 0 C1.125 6.75 1.125 6.75 0 9 C-0.66 9 -1.32 9 -2 9 C-3 6 -3 6 -1.5625 2.8125 C-1.046875 1.884375 -0.53125 0.95625 0 0 Z " fill="#B7383F" transform="translate(148,77)"/>
<path d="M0 0 C1.21816406 0.03480469 1.21816406 0.03480469 2.4609375 0.0703125 C3.68683594 0.09738281 3.68683594 0.09738281 4.9375 0.125 C5.87722656 0.15980469 5.87722656 0.15980469 6.8359375 0.1953125 C6.8359375 0.5253125 6.8359375 0.8553125 6.8359375 1.1953125 C4.1959375 1.1953125 1.5559375 1.1953125 -1.1640625 1.1953125 C-1.8240625 2.8453125 -2.4840625 4.4953125 -3.1640625 6.1953125 C-3.7890625 4.3203125 -3.7890625 4.3203125 -4.1640625 2.1953125 C-2.1640625 0.1953125 -2.1640625 0.1953125 0 0 Z " fill="#BE171C" transform="translate(164.1640625,82.8046875)"/>
<path d="M0 0 C0.66 0 1.32 0 2 0 C1.75 3.375 1.75 3.375 1 7 C-0.98 7.99 -0.98 7.99 -3 9 C-2.01 6.03 -1.02 3.06 0 0 Z " fill="#BB3F46" transform="translate(124,91)"/>
<path d="M0 0 C0.33 0.99 0.66 1.98 1 3 C1.66 3.33 2.32 3.66 3 4 C1.68 4.99 0.36 5.98 -1 7 C-1.625 4.625 -1.625 4.625 -2 2 C-1.34 1.34 -0.68 0.68 0 0 Z " fill="#042759" transform="translate(126,77)"/>
</svg>
