<svg width="172" height="53" viewBox="0 0 172 53" fill="none" xmlns="http://www.w3.org/2000/svg">
<path d="M0.123047 8.00001C0.123047 3.58173 3.70477 0 8.12305 0H163.877C168.295 0 171.877 3.58172 171.877 8V44.4512C171.877 48.8695 168.295 52.4512 163.877 52.4512H8.12306C3.70478 52.4512 0.123047 48.8695 0.123047 44.4512V8.00001Z" fill="#021341"/>
<path d="M17.1344 32.2256V20.5892H19.5946V25.3904H24.589V20.5892H27.0435V32.2256H24.589V27.4188H19.5946V32.2256H17.1344ZM33.0037 32.396C32.106 32.396 31.3333 32.2142 30.6855 31.8506C30.0416 31.4832 29.5454 30.9642 29.1969 30.2938C28.8484 29.6195 28.6742 28.8222 28.6742 27.9017C28.6742 27.004 28.8484 26.2161 29.1969 25.5381C29.5454 24.8601 30.0359 24.3316 30.6685 23.9529C31.3049 23.5741 32.0511 23.3847 32.9071 23.3847C33.4829 23.3847 34.0189 23.4775 34.5151 23.6631C35.0151 23.8449 35.4507 24.1195 35.8219 24.4869C36.1969 24.8544 36.4886 25.3165 36.6969 25.8733C36.9052 26.4263 37.0094 27.0741 37.0094 27.8165V28.4813H29.6401V26.9813H34.731C34.731 26.6328 34.6552 26.3241 34.5037 26.0551C34.3522 25.7862 34.142 25.576 33.873 25.4244C33.6079 25.2691 33.2992 25.1915 32.9469 25.1915C32.5795 25.1915 32.2537 25.2767 31.9696 25.4472C31.6893 25.6138 31.4696 25.8392 31.3105 26.1233C31.1515 26.4036 31.07 26.7161 31.0662 27.0608V28.4869C31.0662 28.9188 31.1458 29.2919 31.3049 29.6063C31.4677 29.9207 31.6969 30.1631 31.9924 30.3335C32.2878 30.504 32.6382 30.5892 33.0435 30.5892C33.3124 30.5892 33.5587 30.5513 33.7821 30.4756C34.0056 30.3998 34.1969 30.2862 34.356 30.1347C34.5151 29.9832 34.6363 29.7976 34.7196 29.5779L36.9583 29.7256C36.8446 30.2635 36.6117 30.7332 36.2594 31.1347C35.9109 31.5324 35.4602 31.843 34.9071 32.0665C34.3579 32.2862 33.7234 32.396 33.0037 32.396ZM38.6344 32.2256V20.5892H41.0549V24.9642H41.1287C41.2348 24.7294 41.3882 24.4907 41.589 24.2483C41.7935 24.0021 42.0587 23.7976 42.3844 23.6347C42.714 23.468 43.123 23.3847 43.6117 23.3847C44.248 23.3847 44.8352 23.5513 45.373 23.8847C45.9109 24.2142 46.3408 24.7123 46.6628 25.379C46.9848 26.0419 47.1458 26.8733 47.1458 27.8733C47.1458 28.8468 46.9886 29.6688 46.6742 30.3392C46.3636 31.0059 45.9393 31.5116 45.4015 31.8563C44.8674 32.1972 44.2689 32.3676 43.606 32.3676C43.1363 32.3676 42.7367 32.29 42.4071 32.1347C42.0814 31.9794 41.8143 31.7843 41.606 31.5494C41.3977 31.3108 41.2386 31.0703 41.1287 30.8279H41.0208V32.2256H38.6344ZM41.0037 27.8619C41.0037 28.3809 41.0757 28.8335 41.2196 29.2199C41.3636 29.6063 41.5719 29.9074 41.8446 30.1233C42.1174 30.3354 42.4488 30.4415 42.839 30.4415C43.2329 30.4415 43.5662 30.3335 43.839 30.1176C44.1117 29.8979 44.3181 29.5949 44.4583 29.2085C44.6022 28.8184 44.6742 28.3695 44.6742 27.8619C44.6742 27.3582 44.6041 26.915 44.464 26.5324C44.3238 26.1498 44.1174 25.8506 43.8446 25.6347C43.5719 25.4188 43.2367 25.3108 42.839 25.3108C42.445 25.3108 42.1117 25.415 41.839 25.6233C41.57 25.8316 41.3636 26.1271 41.2196 26.5097C41.0757 26.8923 41.0037 27.343 41.0037 27.8619ZM48.7608 32.2256V23.4983H51.1074V25.021H51.1983C51.3574 24.4794 51.6245 24.0703 51.9995 23.7938C52.3745 23.5135 52.8063 23.3733 53.2949 23.3733C53.4161 23.3733 53.5468 23.3809 53.687 23.396C53.8271 23.4112 53.9502 23.432 54.0563 23.4585V25.6063C53.9426 25.5722 53.7855 25.5419 53.5847 25.5154C53.3839 25.4888 53.2002 25.4756 53.0336 25.4756C52.6775 25.4756 52.3593 25.5532 52.079 25.7085C51.8025 25.8601 51.5828 26.0722 51.4199 26.3449C51.2608 26.6176 51.1813 26.932 51.1813 27.2881V32.2256H48.7608ZM58.8787 32.396C57.981 32.396 57.2083 32.2142 56.5605 31.8506C55.9166 31.4832 55.4204 30.9642 55.0719 30.2938C54.7234 29.6195 54.5492 28.8222 54.5492 27.9017C54.5492 27.004 54.7234 26.2161 55.0719 25.5381C55.4204 24.8601 55.9109 24.3316 56.5435 23.9529C57.1799 23.5741 57.9261 23.3847 58.7821 23.3847C59.3579 23.3847 59.8939 23.4775 60.3901 23.6631C60.8901 23.8449 61.3257 24.1195 61.6969 24.4869C62.0719 24.8544 62.3636 25.3165 62.5719 25.8733C62.7802 26.4263 62.8844 27.0741 62.8844 27.8165V28.4813H55.5151V26.9813H60.606C60.606 26.6328 60.5302 26.3241 60.3787 26.0551C60.2272 25.7862 60.017 25.576 59.748 25.4244C59.4829 25.2691 59.1742 25.1915 58.8219 25.1915C58.4545 25.1915 58.1287 25.2767 57.8446 25.4472C57.5643 25.6138 57.3446 25.8392 57.1855 26.1233C57.0265 26.4036 56.945 26.7161 56.9412 27.0608V28.4869C56.9412 28.9188 57.0208 29.2919 57.1799 29.6063C57.3427 29.9207 57.5719 30.1631 57.8674 30.3335C58.1628 30.504 58.5132 30.5892 58.9185 30.5892C59.1874 30.5892 59.4337 30.5513 59.6571 30.4756C59.8806 30.3998 60.0719 30.2862 60.231 30.1347C60.3901 29.9832 60.5113 29.7976 60.5946 29.5779L62.8333 29.7256C62.7196 30.2635 62.4867 30.7332 62.1344 31.1347C61.7859 31.5324 61.3352 31.843 60.7821 32.0665C60.2329 32.2862 59.5984 32.396 58.8787 32.396ZM66.123 32.2256L63.748 23.4983H66.1969L67.5492 29.3619H67.6287L69.0378 23.4983H71.4412L72.873 29.3279H72.9469L74.2765 23.4983H76.7196L74.3503 32.2256H71.7878L70.2878 26.7369H70.1799L68.6799 32.2256H66.123ZM83.7651 32.2256H81.1287L85.1458 20.5892H88.3162L92.3276 32.2256H89.6912L86.7765 23.2483H86.6855L83.7651 32.2256ZM83.6003 27.6517H89.8276V29.5722H83.6003V27.6517ZM93.6827 35.4983V23.4983H96.0691V24.9642H96.177C96.2831 24.7294 96.4365 24.4907 96.6373 24.2483C96.8418 24.0021 97.1069 23.7976 97.4327 23.6347C97.7623 23.468 98.1713 23.3847 98.66 23.3847C99.2963 23.3847 99.8835 23.5513 100.421 23.8847C100.959 24.2142 101.389 24.7123 101.711 25.379C102.033 26.0419 102.194 26.8733 102.194 27.8733C102.194 28.8468 102.037 29.6688 101.722 30.3392C101.412 31.0059 100.988 31.5116 100.45 31.8563C99.9157 32.1972 99.3172 32.3676 98.6543 32.3676C98.1846 32.3676 97.785 32.29 97.4554 32.1347C97.1297 31.9794 96.8626 31.7843 96.6543 31.5494C96.446 31.3108 96.2869 31.0703 96.177 30.8279H96.1032V35.4983H93.6827ZM96.052 27.8619C96.052 28.3809 96.124 28.8335 96.2679 29.2199C96.4119 29.6063 96.6202 29.9074 96.8929 30.1233C97.1657 30.3354 97.4971 30.4415 97.8873 30.4415C98.2812 30.4415 98.6145 30.3335 98.8873 30.1176C99.16 29.8979 99.3664 29.5949 99.5066 29.2085C99.6505 28.8184 99.7225 28.3695 99.7225 27.8619C99.7225 27.3582 99.6524 26.915 99.5123 26.5324C99.3721 26.1498 99.1657 25.8506 98.8929 25.6347C98.6202 25.4188 98.285 25.3108 97.8873 25.3108C97.4933 25.3108 97.16 25.415 96.8873 25.6233C96.6183 25.8316 96.4119 26.1271 96.2679 26.5097C96.124 26.8923 96.052 27.343 96.052 27.8619ZM103.808 35.4983V23.4983H106.194V24.9642H106.302C106.408 24.7294 106.561 24.4907 106.762 24.2483C106.967 24.0021 107.232 23.7976 107.558 23.6347C107.887 23.468 108.296 23.3847 108.785 23.3847C109.421 23.3847 110.008 23.5513 110.546 23.8847C111.084 24.2142 111.514 24.7123 111.836 25.379C112.158 26.0419 112.319 26.8733 112.319 27.8733C112.319 28.8468 112.162 29.6688 111.847 30.3392C111.537 31.0059 111.113 31.5116 110.575 31.8563C110.041 32.1972 109.442 32.3676 108.779 32.3676C108.31 32.3676 107.91 32.29 107.58 32.1347C107.255 31.9794 106.988 31.7843 106.779 31.5494C106.571 31.3108 106.412 31.0703 106.302 30.8279H106.228V35.4983H103.808ZM106.177 27.8619C106.177 28.3809 106.249 28.8335 106.393 29.2199C106.537 29.6063 106.745 29.9074 107.018 30.1233C107.291 30.3354 107.622 30.4415 108.012 30.4415C108.406 30.4415 108.74 30.3335 109.012 30.1176C109.285 29.8979 109.491 29.5949 109.632 29.2085C109.776 28.8184 109.847 28.3695 109.847 27.8619C109.847 27.3582 109.777 26.915 109.637 26.5324C109.497 26.1498 109.291 25.8506 109.018 25.6347C108.745 25.4188 108.41 25.3108 108.012 25.3108C107.618 25.3108 107.285 25.415 107.012 25.6233C106.743 25.8316 106.537 26.1271 106.393 26.5097C106.249 26.8923 106.177 27.343 106.177 27.8619Z" fill="#FBB105"/>
<mask id="path-3-inside-1_94_1073" fill="white">
<path d="M121.123 8H155.877V44.4512H121.123V8Z"/>
</mask>
<path d="M122.623 44.4512V8H119.623V44.4512H122.623Z" fill="#FBB105" mask="url(#path-3-inside-1_94_1073)"/>
<path d="M136.427 8.00997C136.476 8.02235 136.505 8.03521 136.544 8.06844C136.657 8.16532 136.568 8.29974 136.573 8.44852C136.577 8.57403 136.564 8.64483 136.573 8.77012C136.583 8.91993 136.594 9.00487 136.631 9.15019C136.678 9.32869 136.731 9.4207 136.807 9.58874C136.908 9.81206 136.964 9.93985 137.099 10.1442C137.247 10.3673 137.357 10.4731 137.538 10.6705C137.712 10.8611 137.821 10.9573 138.006 11.1383C138.998 12.1128 140.666 13.5064 140.666 13.5064C140.666 13.5064 141.619 14.3524 142.216 14.9098C142.422 15.1028 142.561 15.1892 142.742 15.4068C142.815 15.4947 142.864 15.5399 142.917 15.6407C142.963 15.7268 142.985 15.779 143.005 15.8746C143.03 15.9976 143.018 16.0712 143.005 16.1962C142.993 16.312 142.975 16.3755 142.946 16.4885C142.918 16.6042 142.895 16.6672 142.859 16.7809C142.775 17.0461 142.625 17.4533 142.625 17.4533L141.923 19.0321C141.923 19.0321 141.53 19.9156 141.309 20.4939C141.227 20.7099 141.175 20.8292 141.105 21.0494C141.054 21.2078 141.008 21.2938 140.988 21.4587C140.97 21.5947 140.981 21.6727 140.988 21.8096C140.994 21.9355 140.988 22.0084 141.017 22.1312C141.051 22.2757 141.163 22.482 141.163 22.482L141.338 22.8328L142.274 24.587L143.21 26.2827C143.21 26.2827 143.955 27.7549 144.554 28.6216C144.666 28.7832 144.727 28.8753 144.847 29.031C144.946 29.1595 144.997 29.2362 145.11 29.3526C145.205 29.4499 145.265 29.4986 145.369 29.5832L145.373 29.5865C145.462 29.6584 145.509 29.7026 145.607 29.7619C145.725 29.8334 145.793 29.8831 145.929 29.9081C146.03 29.9266 146.09 29.9212 146.192 29.9081C146.285 29.8961 146.336 29.8793 146.424 29.8501L146.426 29.8496C146.557 29.8064 146.747 29.7034 146.747 29.7034C146.747 29.7034 146.956 29.557 147.069 29.4403C147.188 29.317 147.222 29.2649 147.332 29.0894C147.442 28.914 148.034 27.5399 148.034 27.5399L149.086 24.8794L149.408 24.09L149.992 22.6282L150.285 21.8973L150.694 20.9032C150.694 20.9032 150.83 20.5864 150.899 20.377L150.904 20.3613C150.953 20.213 150.982 20.1247 151.016 19.9677C151.047 19.8209 151.064 19.7374 151.074 19.5876C151.083 19.4623 151.092 19.3904 151.074 19.266C151.061 19.1728 151.046 19.1214 151.016 19.0321C150.98 18.9255 150.953 18.8674 150.899 18.769C150.831 18.6469 150.783 18.5842 150.694 18.4766C150.519 18.2644 150.38 18.1842 150.168 18.0088C150.011 17.8792 149.759 17.6872 149.759 17.6872L149.291 17.3364L148.881 17.0148C148.881 17.0148 148.721 16.8725 148.618 16.7809C148.504 16.6785 148.437 16.6239 148.326 16.5178C148.244 16.4396 148.198 16.3961 148.121 16.3131C148.05 16.2358 148.006 16.1949 147.946 16.1085C147.893 16.0329 147.87 15.9863 147.829 15.9038C147.79 15.8259 147.769 15.7815 147.741 15.6991C147.711 15.61 147.7 15.5578 147.683 15.4653C147.666 15.3748 147.654 15.2314 147.654 15.2314V10.5535C147.654 10.5535 147.665 10.4277 147.683 10.3489C147.706 10.2431 147.734 10.1878 147.77 10.0858C147.803 9.99383 147.819 9.94133 147.858 9.85186C147.899 9.75821 147.975 9.61797 147.975 9.61797L148.121 9.35485C148.121 9.35485 148.244 9.13954 148.326 9.00401C148.382 8.91197 148.415 8.86146 148.472 8.77012C148.529 8.67878 148.55 8.61942 148.618 8.53623C148.67 8.47387 148.695 8.43125 148.765 8.39004C148.836 8.34762 148.887 8.34096 148.969 8.33157C149.026 8.32513 149.064 8.33527 149.115 8.3608C149.166 8.38634 149.178 8.39746 149.203 8.44852C149.232 8.50699 149.189 8.68086 149.203 8.82859L149.204 8.83525C149.216 8.95824 149.223 9.03096 149.262 9.15019C149.314 9.31047 149.375 9.38856 149.466 9.53026C149.585 9.71462 149.674 9.80263 149.817 9.96881C149.991 10.1708 150.285 10.4658 150.285 10.4658L150.928 11.0798L151.6 11.6645L152.331 12.337L153.15 13.0679L153.647 13.5357L154.407 14.2666C154.407 14.2666 154.752 14.5804 154.963 14.7928C155.139 14.9708 155.238 15.0711 155.401 15.2606C155.507 15.3834 155.572 15.4488 155.664 15.5822C155.74 15.6917 155.796 15.7488 155.84 15.8746C155.896 16.0367 155.873 16.1415 155.869 16.3131C155.866 16.4392 155.86 16.5102 155.84 16.6347C155.811 16.8097 155.775 16.9038 155.723 17.0733C155.584 17.5232 155.255 18.1842 155.255 18.1842L154.67 19.4122L154.086 20.6401C154.086 20.6401 153.834 21.1667 153.705 21.5172C153.55 21.9413 153.511 22.1948 153.384 22.6282C153.26 23.0511 153.062 23.7099 153.062 23.7099L152.741 25.0548L152.331 26.6336L151.805 28.6216C151.805 28.6216 151.581 29.568 151.425 30.1712C151.336 30.5144 151.278 30.7045 151.191 31.0483C151.094 31.435 151.077 31.6619 150.957 32.0423C150.871 32.3169 150.808 32.4686 150.7 32.7308L150.694 32.744C150.608 32.9518 150.559 33.0684 150.46 33.2702C150.375 33.4444 150.343 33.5536 150.226 33.7088C150.12 33.8508 150.039 33.9138 149.905 34.0304C149.745 34.1698 149.645 34.237 149.466 34.352C149.311 34.4516 149.22 34.5001 149.057 34.5859C148.567 34.8437 147.741 35.1121 147.741 35.1121L144.613 36.2816L141.134 37.568L139.058 38.3281L136.836 39.1468C136.836 39.1468 135.97 39.4893 135.403 39.673C135.152 39.7543 135.006 39.7972 134.761 39.8688L134.731 39.8777C134.572 39.9244 134.487 39.9748 134.322 39.9946C134.197 40.0096 134.124 40.0133 134 39.9946C133.857 39.9731 133.77 39.9571 133.649 39.8777C133.555 39.8155 133.517 39.7601 133.445 39.673C133.366 39.5778 133.32 39.5222 133.269 39.4099C133.211 39.2814 133.21 39.1973 133.182 39.059C133.153 38.923 133.123 38.7082 133.123 38.7082V35.4337C133.123 35.4337 133.125 35.1646 133.152 34.9952C133.181 34.8203 133.202 34.7208 133.269 34.5566C133.339 34.3862 133.398 34.2986 133.503 34.1473C133.632 33.9611 133.716 33.8618 133.883 33.7088C134.04 33.5654 134.142 33.4997 134.322 33.3872C134.691 33.1569 135.345 32.9486 135.345 32.9486L136.982 32.3931L138.093 32.0423L138.853 31.7499C138.853 31.7499 139.086 31.6454 139.233 31.5745C139.371 31.5081 139.453 31.4786 139.584 31.3991C139.717 31.3185 139.796 31.2746 139.906 31.1652C139.998 31.0735 140.111 30.9021 140.111 30.9021C140.111 30.9021 140.216 30.7494 140.257 30.639C140.304 30.5085 140.303 30.4265 140.315 30.2881C140.329 30.1289 140.333 30.0376 140.315 29.8788C140.302 29.7631 140.282 29.7002 140.257 29.5865C140.13 29.0117 139.789 28.1539 139.789 28.1539L139.029 25.9611L138.415 24.2362L138.152 23.5053L137.947 22.8913C137.901 22.7543 137.865 22.6805 137.83 22.5405C137.799 22.4167 137.782 22.3461 137.772 22.2189C137.762 22.1051 137.772 22.0407 137.772 21.9265C137.772 21.8237 137.765 21.7659 137.772 21.6634C137.781 21.5135 137.804 21.4311 137.83 21.2833C137.851 21.1687 137.858 21.1032 137.889 20.9909C137.924 20.8621 137.959 20.7947 138.006 20.6693C138.039 20.5779 138.059 20.5268 138.093 20.4354C138.127 20.3441 138.154 20.2952 138.181 20.2016C138.214 20.0898 138.229 20.0252 138.239 19.9092C138.247 19.8182 138.239 19.7666 138.239 19.6753C138.239 19.584 138.25 19.5321 138.239 19.4414C138.228 19.3479 138.213 19.296 138.181 19.2075C138.147 19.1153 138.118 19.0656 138.07 18.9838L138.064 18.9736C137.961 18.7984 137.742 18.5643 137.742 18.5643L136.865 17.6288L136.222 16.9856L135.784 16.5178C135.784 16.5178 135.593 16.3317 135.491 16.1962C135.386 16.057 135.34 15.9694 135.257 15.8161C135.209 15.7263 135.183 15.6752 135.14 15.5822C135.09 15.4702 135.052 15.4095 135.023 15.2898C134.999 15.1893 135.001 15.1299 134.994 15.0267C134.986 14.89 134.994 14.8129 134.994 14.6759C134.995 13.203 135.022 12.3773 135.023 10.9044C135.024 10.7331 135 10.6355 135.023 10.4658C135.038 10.3615 135.056 10.3047 135.082 10.2027C135.12 10.0523 135.149 9.96977 135.199 9.82263C135.242 9.69601 135.263 9.624 135.316 9.50103C135.376 9.36007 135.418 9.28496 135.491 9.15019C135.567 9.01064 135.618 8.93756 135.696 8.79935C135.766 8.67471 135.797 8.59995 135.871 8.47775C135.935 8.37227 135.965 8.30738 136.047 8.21463C136.127 8.12347 136.162 8.03704 136.281 8.00997C136.336 7.99724 136.371 7.99612 136.427 8.00997Z" fill="#FCC33E"/>
<rect x="142.278" y="40.0073" width="4.44394" height="4.44394" rx="2.22197" fill="#FCC33E"/>
</svg>
