<svg width="17" height="5" viewBox="0 0 17 5" fill="none" xmlns="http://www.w3.org/2000/svg">
<path d="M0.376953 2.22562C0.376953 1.12105 1.27238 0.225616 2.37695 0.225616C3.48152 0.225616 4.37695 1.12105 4.37695 2.22562C4.37695 3.33019 3.48152 4.22562 2.37695 4.22562C1.27238 4.22562 0.376953 3.33019 0.376953 2.22562Z" fill="#0D0D0D"/>
<path d="M6.37695 2.22562C6.37695 1.12105 7.27238 0.225616 8.37695 0.225616C9.48152 0.225616 10.377 1.12105 10.377 2.22562C10.377 3.33019 9.48152 4.22562 8.37695 4.22562C7.27238 4.22562 6.37695 3.33019 6.37695 2.22562Z" fill="#0D0D0D"/>
<path d="M12.377 2.22562C12.377 1.12105 13.2724 0.225616 14.377 0.225616C15.4815 0.225616 16.377 1.12105 16.377 2.22562C16.377 3.33019 15.4815 4.22562 14.377 4.22562C13.2724 4.22562 12.377 3.33019 12.377 2.22562Z" fill="#0D0D0D"/>
</svg>
