<svg width="68" height="68" viewBox="0 0 68 68" fill="none" xmlns="http://www.w3.org/2000/svg">
<path d="M0.5 34C0.5 15.4985 15.4985 0.5 34 0.5C52.5015 0.5 67.5 15.4985 67.5 34C67.5 52.5015 52.5015 67.5 34 67.5C15.4985 67.5 0.5 52.5015 0.5 34Z" stroke="#C6C6C6"/>
<path d="M35.5 49C34.2727 49 33.1003 48.4882 30.7554 47.4646C28.0185 46.27 25.9233 45.3554 24.4697 44.5H19M35.5 49C36.7273 49 37.8997 48.4882 40.2446 47.4646C46.0816 44.9169 49 43.6429 49 41.5V25.75M35.5 49V32.5M22 25.75V30.25" stroke="#0D0D0D" stroke-width="1.5" stroke-linecap="round" stroke-linejoin="round"/>
<path d="M29.9889 30.5371L25.6071 28.4168C23.2024 27.2532 22 26.6713 22 25.75C22 24.8287 23.2024 24.2468 25.6071 23.0832L29.9889 20.9629C32.6932 19.6543 34.0455 19 35.5 19C36.9545 19 38.3068 19.6543 41.0112 20.9629L45.393 23.0832C47.7976 24.2468 49 24.8287 49 25.75C49 26.6713 47.7976 27.2532 45.393 28.4168L41.0112 30.5371C38.3068 31.8457 36.9545 32.5 35.5 32.5C34.0455 32.5 32.6932 31.8457 29.9889 30.5371Z" stroke="#0D0D0D" stroke-width="1.5" stroke-linecap="round" stroke-linejoin="round"/>
<path d="M43.2049 22.0234L27.8008 29.4773" stroke="#0D0D0D" stroke-width="1.5" stroke-linecap="round" stroke-linejoin="round"/>
<path d="M19 35.5H23.5" stroke="#0D0D0D" stroke-width="1.5" stroke-linecap="round" stroke-linejoin="round"/>
<path d="M19 40H23.5" stroke="#0D0D0D" stroke-width="1.5" stroke-linecap="round" stroke-linejoin="round"/>
</svg>
