<svg width="261" height="179" viewBox="0 0 261 179" fill="none" xmlns="http://www.w3.org/2000/svg">
<g filter="url(#filter0_dd_286_4949)">
<path d="M43 9C43 5.68629 45.6863 3 49 3H247C250.314 3 253 5.68629 253 9V38H43V9Z" fill="#021341"/>
<path d="M54 23C54 23 60.995 20 66 20C71.005 20 72.995 23 78 23C83.005 23 84.995 20 90 20C95.005 20 102 23 102 23" stroke="#FBB105" stroke-width="2" stroke-linecap="round"/>
<path d="M43 38H253V160C253 163.314 250.314 166 247 166H49C45.6863 166 43 163.314 43 160V38Z" fill="#FBFBFB"/>
<path d="M52 58C52 54.6863 54.6863 52 58 52H156C159.314 52 162 54.6863 162 58V130C162 133.314 159.314 136 156 136H58C54.6863 136 52 133.314 52 130V58Z" fill="#E1E1E1"/>
<path d="M60 64C60 61.7909 61.7909 60 64 60H86C88.2091 60 90 61.7909 90 64V86C90 88.2091 88.2091 90 86 90H64C61.7909 90 60 88.2091 60 86V64Z" fill="#C6C6C6"/>
<path d="M98 70C98 68.3431 99.3431 67 101 67H143C144.657 67 146 68.3431 146 70C146 71.6569 144.657 73 143 73H101C99.3431 73 98 71.6569 98 70Z" fill="#C6C6C6"/>
<path d="M98 80C98 78.3431 99.3431 77 101 77H133C134.657 77 136 78.3431 136 80C136 81.6569 134.657 83 133 83H101C99.3431 83 98 81.6569 98 80Z" fill="#C6C6C6"/>
<path d="M60 102C60 99.7909 61.7909 98 64 98H86C88.2091 98 90 99.7909 90 102V124C90 126.209 88.2091 128 86 128H64C61.7909 128 60 126.209 60 124V102Z" fill="#C6C6C6"/>
<path d="M98 108C98 106.343 99.3431 105 101 105H143C144.657 105 146 106.343 146 108C146 109.657 144.657 111 143 111H101C99.3431 111 98 109.657 98 108Z" fill="#C6C6C6"/>
<path d="M98 118C98 116.343 99.3431 115 101 115H133C134.657 115 136 116.343 136 118C136 119.657 134.657 121 133 121H101C99.3431 121 98 119.657 98 118Z" fill="#C6C6C6"/>
<path d="M170 58C170 54.6863 172.686 52 176 52H238C241.314 52 244 54.6863 244 58V147C244 150.314 241.314 153 238 153H176C172.686 153 170 150.314 170 147V58Z" fill="#E1E1E1"/>
<path d="M178 63C178 61.3431 179.343 60 181 60H233C234.657 60 236 61.3431 236 63C236 64.6569 234.657 66 233 66H181C179.343 66 178 64.6569 178 63Z" fill="#ACACAC"/>
<path d="M178 73C178 71.3431 179.343 70 181 70H221C222.657 70 224 71.3431 224 73C224 74.6569 222.657 76 221 76H181C179.343 76 178 74.6569 178 73Z" fill="#C6C6C6"/>
<path d="M178 83C178 81.3431 179.343 80 181 80H210C211.657 80 213 81.3431 213 83C213 84.6569 211.657 86 210 86H181C179.343 86 178 84.6569 178 83Z" fill="#C6C6C6"/>
<path d="M178 138.5C178 134.91 180.91 132 184.5 132H229.5C233.09 132 236 134.91 236 138.5C236 142.09 233.09 145 229.5 145H184.5C180.91 145 178 142.09 178 138.5Z" fill="#FBB105"/>
</g>
<g filter="url(#filter1_dd_286_4949)">
<path d="M8 126C8 122.686 10.6863 120 14 120H144.25C147.564 120 150.25 122.686 150.25 126V143.562C150.25 146.876 147.564 149.562 144.25 149.562H14C10.6863 149.562 8 146.876 8 143.562V126Z" fill="#FBFBFB"/>
<g clip-path="url(#clip0_286_4949)">
<path d="M39.2847 132.804C39.8775 132.804 40.3355 132.966 40.6859 133.289C41.0361 133.613 41.1978 134.044 41.1978 134.583V137.169H40.4433V136.577H40.4164C40.0931 137.062 39.635 137.304 39.0961 137.304C38.638 137.304 38.2338 137.169 37.9105 136.9C37.6141 136.631 37.4255 136.253 37.4255 135.849C37.4255 135.418 37.5872 135.068 37.9105 134.798C38.2338 134.529 38.6919 134.421 39.2308 134.421C39.7158 134.421 40.0931 134.502 40.3894 134.691V134.502C40.3894 134.251 40.2955 133.999 40.1078 133.835L40.0661 133.801C39.8505 133.613 39.5811 133.505 39.2847 133.505C38.8267 133.505 38.4764 133.694 38.2338 134.071L37.5333 133.64C37.9644 133.074 38.5302 132.804 39.2847 132.804ZM35.4855 130.972C35.969 130.972 36.4284 131.14 36.7958 131.454L36.8597 131.511C37.2369 131.834 37.4255 132.319 37.4255 132.831C37.4255 133.343 37.2369 133.801 36.8597 134.152C36.4825 134.502 36.0244 134.691 35.4855 134.691L34.1922 134.664V137.169H33.3838V130.972H35.4855ZM39.3924 135.068C39.0691 135.068 38.7997 135.149 38.5841 135.31C38.3686 135.445 38.2608 135.634 38.2608 135.876C38.2608 136.092 38.3686 136.28 38.5302 136.388C38.7189 136.523 38.9344 136.604 39.15 136.604C39.4517 136.604 39.7535 136.486 39.9896 136.273L40.0391 136.226C40.3086 135.984 40.4433 135.687 40.4433 135.364C40.2008 135.176 39.8505 135.068 39.3925 135.068M35.5394 131.727H34.1922V133.882H35.5394C35.8358 133.882 36.1322 133.774 36.3208 133.559C36.7519 133.155 36.7519 132.481 36.3478 132.077L36.3208 132.05C36.1053 131.834 35.8358 131.7 35.5394 131.727M45.5628 132.939L42.8953 139.056H42.087L43.0839 136.927L41.3325 132.966H42.1947L43.4611 136.011H43.4881L44.7275 132.966H45.5628V132.939Z" fill="#5F6368"/>
<path d="M30.9854 134.125C30.9854 133.882 30.9584 133.64 30.9315 133.397H27.5635V134.772H29.4765C29.3957 135.203 29.1532 135.607 28.776 135.849V136.739H29.9346C30.6082 136.119 30.9854 135.203 30.9854 134.125" fill="#4285F4"/>
<path d="M27.5632 137.601C28.5332 137.601 29.3416 137.278 29.9344 136.739L28.7758 135.849C28.4524 136.065 28.0482 136.2 27.5632 136.2C26.6471 136.2 25.8388 135.58 25.5693 134.718H24.3838V135.634C25.0035 136.846 26.216 137.601 27.5632 137.601Z" fill="#34A853"/>
<path d="M25.5695 134.718C25.4079 134.286 25.4079 133.801 25.5695 133.343V132.427H24.384C23.872 133.424 23.872 134.61 24.384 135.634L25.5695 134.718Z" fill="#FBBC04"/>
<path d="M27.5637 131.888C28.0756 131.888 28.5606 132.077 28.9379 132.427L29.9618 131.403C29.315 130.81 28.4528 130.46 27.5906 130.487C26.2434 130.487 25.0039 131.241 24.4111 132.454L25.5967 133.37C25.8392 132.508 26.6475 131.888 27.5637 131.888Z" fill="#EA4335"/>
</g>
<g clip-path="url(#clip1_286_4949)">
<path d="M55.4941 127.88L55.0862 127.883C54.9515 127.887 54.814 127.894 54.6802 127.919C54.4778 127.95 54.286 128.03 54.1205 128.151C53.9549 128.271 53.8203 128.429 53.7278 128.612C53.6649 128.736 53.6254 128.862 53.602 128.998C53.5769 129.131 53.5688 129.268 53.5661 129.403L53.5625 129.59V139.974C53.5625 140.036 53.5634 140.098 53.5652 140.16C53.5688 140.294 53.5769 140.432 53.6011 140.566C53.6245 140.7 53.667 140.828 53.7287 140.951C53.8528 141.195 54.051 141.393 54.2947 141.517C54.4187 141.58 54.5445 141.621 54.6811 141.645C54.814 141.669 54.9506 141.677 55.0854 141.681L55.2722 141.683H73.4153L73.6013 141.681C73.736 141.677 73.8735 141.669 74.0073 141.645C74.1412 141.621 74.2688 141.581 74.3919 141.518C74.6365 141.394 74.8351 141.196 74.9588 140.951C75.0217 140.827 75.0621 140.701 75.0855 140.565C75.1097 140.432 75.1178 140.295 75.1214 140.161C75.1232 140.098 75.1241 140.036 75.1241 139.974L75.125 139.753V129.59C75.125 129.527 75.1238 129.465 75.1214 129.404C75.1197 129.268 75.1077 129.132 75.0855 128.998C75.042 128.727 74.9144 128.477 74.7208 128.284C74.5273 128.09 74.2776 127.962 74.0073 127.919C73.8731 127.896 73.7373 127.884 73.6013 127.883C73.4656 127.879 73.3299 127.878 73.1943 127.88H55.4941ZM55.4941 128.34H73.4108C73.4695 128.34 73.5285 128.341 73.5878 128.343C73.6911 128.346 73.8124 128.352 73.9247 128.371C74.0226 128.389 74.1044 128.416 74.1825 128.456C74.34 128.536 74.4681 128.664 74.5482 128.821C74.5893 128.903 74.6178 128.99 74.6327 129.08C74.6524 129.191 74.6578 129.312 74.6605 129.416C74.6623 129.474 74.6632 129.533 74.6632 129.593V139.972C74.6632 140.03 74.6623 140.089 74.6605 140.148C74.6578 140.251 74.6524 140.373 74.6318 140.485C74.6121 140.617 74.5611 140.743 74.4829 140.851C74.4047 140.959 74.3017 141.047 74.1825 141.108C74.1016 141.149 74.015 141.177 73.9256 141.192C73.8146 141.209 73.7027 141.218 73.5905 141.221L73.4108 141.223H55.2749C55.215 141.223 55.1563 141.223 55.0988 141.221C54.986 141.218 54.8735 141.209 54.7619 141.192C54.664 141.174 54.5822 141.147 54.5032 141.108C54.3449 141.029 54.2167 140.9 54.1384 140.742C54.0973 140.66 54.0688 140.573 54.0539 140.483C54.036 140.372 54.0264 140.26 54.0252 140.148L54.0234 139.971V129.592L54.0252 129.415C54.0288 129.313 54.0342 129.192 54.0539 129.078C54.0719 128.981 54.0989 128.9 54.1384 128.821C54.2187 128.663 54.3467 128.536 54.5041 128.456C54.5852 128.415 54.6722 128.386 54.7619 128.371C54.8742 128.352 54.9955 128.345 55.0988 128.343L55.2749 128.34H55.4941ZM59.7258 131.664C59.4563 131.678 59.1256 131.843 58.9352 132.074C58.7636 132.271 58.6117 132.595 58.6512 132.899C58.9549 132.925 59.2577 132.747 59.4491 132.523C59.6332 132.291 59.759 131.981 59.7258 131.665V131.664ZM61.7086 132.041V136.977H62.4741V135.29H63.5343C64.5028 135.29 65.1829 134.626 65.1829 133.662C65.1829 132.701 64.5163 132.041 63.5585 132.041L61.7086 132.041ZM62.4741 132.687H63.3564C64.0203 132.687 64.3995 133.043 64.3995 133.666C64.3995 134.288 64.0203 134.647 63.3537 134.647H62.4741V132.687ZM59.6404 132.957C59.2361 132.966 58.8947 133.209 58.6971 133.209C58.4859 133.209 58.1643 132.971 57.8157 132.978C57.589 132.984 57.3678 133.049 57.174 133.166C56.9802 133.284 56.8205 133.45 56.7106 133.649C56.2371 134.465 56.5857 135.675 57.0466 136.34C57.2704 136.668 57.5399 137.03 57.8948 137.017C58.2299 137.004 58.362 136.8 58.7689 136.8C59.1768 136.8 59.2954 137.017 59.6494 137.011C60.0178 137.004 60.2487 136.682 60.4715 136.352C60.7284 135.977 60.8336 135.615 60.8398 135.597C60.8336 135.589 60.1301 135.32 60.1238 134.51C60.1166 133.833 60.6763 133.51 60.7024 133.491C60.3861 133.023 59.8938 132.971 59.7231 132.958L59.6404 132.957ZM67.0112 133.314C66.1218 133.314 65.5683 133.792 65.527 134.442H66.2251C66.2898 134.12 66.5566 133.916 66.9843 133.916C67.4353 133.916 67.7057 134.155 67.7057 134.554V134.832L66.7201 134.889C65.8657 134.938 65.3832 135.324 65.3832 135.953C65.3832 136.6 65.8756 137.038 66.58 137.038C67.0525 137.038 67.5071 136.785 67.7156 136.384H67.7327V136.977H68.4406V134.497C68.4406 133.775 67.8836 133.314 67.0112 133.314ZM68.7542 133.378L70.0533 136.98C70.0533 136.983 69.9877 137.196 69.9877 137.202C69.8754 137.57 69.6912 137.715 69.3489 137.715C69.287 137.715 69.1639 137.715 69.1091 137.702V138.3C69.163 138.31 69.3489 138.317 69.41 138.317C70.1557 138.317 70.5115 138.037 70.8188 137.164L72.1664 133.378H71.3866L70.4774 136.306H70.4639L69.5538 133.377L68.7542 133.378ZM67.7057 135.345V135.629C67.7057 136.097 67.3014 136.453 66.7857 136.453C66.3886 136.453 66.1289 136.248 66.1289 135.933C66.1289 135.625 66.3787 135.429 66.8198 135.4L67.7057 135.345Z" fill="#0D0D0D"/>
</g>
<g clip-path="url(#clip2_286_4949)">
<path d="M87.0449 143.079V141.969C87.0449 141.544 86.786 141.267 86.3422 141.267C86.1203 141.267 85.8799 141.341 85.7135 141.581C85.5841 141.378 85.3992 141.267 85.1219 141.267C84.9369 141.267 84.7521 141.322 84.6041 141.525V141.304H84.2158V143.079H84.6041V142.099C84.6041 141.784 84.7705 141.636 85.0295 141.636C85.2882 141.636 85.4178 141.803 85.4178 142.099V143.079H85.8061V142.099C85.8061 141.784 85.9909 141.636 86.2312 141.636C86.4902 141.636 86.6195 141.803 86.6195 142.099V143.079H87.0449ZM92.7953 141.304H92.1667V140.767H91.7784V141.304H91.427V141.655H91.7783V142.469C91.7783 142.875 91.9447 143.116 92.3885 143.116C92.5549 143.116 92.7397 143.06 92.8693 142.986L92.7583 142.653C92.6473 142.727 92.518 142.746 92.4255 142.746C92.2406 142.746 92.1667 142.635 92.1667 142.45V141.655H92.7953V141.304ZM96.0866 141.267C95.8647 141.267 95.7168 141.378 95.6243 141.525V141.304H95.236V143.079H95.6243V142.08C95.6243 141.784 95.7537 141.618 95.9941 141.618C96.068 141.618 96.1605 141.636 96.2345 141.655L96.3454 141.285C96.2714 141.267 96.1605 141.267 96.0866 141.267M91.1127 141.452C90.9277 141.322 90.6689 141.267 90.3915 141.267C89.9478 141.267 89.652 141.489 89.652 141.84C89.652 142.136 89.8739 142.302 90.2622 142.358L90.447 142.376C90.6505 142.413 90.7614 142.469 90.7614 142.561C90.7614 142.69 90.6135 142.783 90.3546 142.783C90.0956 142.783 89.8923 142.69 89.7629 142.598L89.578 142.894C89.7814 143.042 90.0588 143.116 90.336 143.116C90.8538 143.116 91.1497 142.875 91.1497 142.543C91.1497 142.228 90.9093 142.062 90.5394 142.006L90.3546 141.988C90.1881 141.969 90.0588 141.932 90.0588 141.821C90.0588 141.692 90.1881 141.618 90.3915 141.618C90.6135 141.618 90.8353 141.71 90.9463 141.766L91.1127 141.452ZM101.43 141.267C101.208 141.267 101.06 141.378 100.968 141.526V141.304H100.58V143.079H100.968V142.08C100.968 141.784 101.097 141.618 101.338 141.618C101.412 141.618 101.504 141.637 101.578 141.655L101.689 141.285C101.615 141.267 101.504 141.267 101.43 141.267ZM96.4749 142.191C96.4749 142.727 96.8446 143.116 97.4179 143.116C97.6767 143.116 97.8616 143.06 98.0465 142.912L97.8616 142.598C97.7137 142.709 97.5658 142.764 97.3994 142.764C97.085 142.764 96.8632 142.543 96.8632 142.191C96.8632 141.858 97.085 141.636 97.3994 141.618C97.5658 141.618 97.7137 141.673 97.8616 141.784L98.0465 141.47C97.8616 141.322 97.6767 141.267 97.4179 141.267C96.8446 141.267 96.4749 141.655 96.4749 142.191ZM100.062 142.191V141.304H99.6737V141.526C99.5442 141.359 99.3594 141.267 99.119 141.267C98.6197 141.267 98.2314 141.655 98.2314 142.191C98.2314 142.727 98.6197 143.116 99.119 143.116C99.3778 143.116 99.5628 143.023 99.6737 142.857V143.079H100.062V142.191ZM98.6382 142.191C98.6382 141.877 98.8416 141.618 99.1744 141.618C99.4887 141.618 99.7107 141.858 99.7107 142.191C99.7107 142.506 99.4887 142.764 99.1744 142.764C98.8416 142.746 98.6382 142.506 98.6382 142.191ZM93.9972 141.267C93.4794 141.267 93.1096 141.636 93.1096 142.191C93.1096 142.746 93.4794 143.116 94.0156 143.116C94.2745 143.116 94.5334 143.042 94.7368 142.875L94.5518 142.598C94.4039 142.709 94.2191 142.783 94.0342 142.783C93.7938 142.783 93.5534 142.672 93.4979 142.358H94.8108V142.21C94.8293 141.636 94.4965 141.267 93.9972 141.267ZM93.9971 141.6C94.2374 141.6 94.4039 141.748 94.4408 142.025H93.5163C93.5533 141.784 93.7197 141.6 93.9971 141.6ZM103.63 142.191V140.601H103.242V141.526C103.113 141.359 102.928 141.267 102.687 141.267C102.188 141.267 101.8 141.655 101.8 142.191C101.8 142.727 102.188 143.116 102.687 143.116C102.946 143.116 103.131 143.023 103.242 142.857V143.079H103.63V142.191ZM102.207 142.191C102.207 141.877 102.41 141.618 102.743 141.618C103.057 141.618 103.279 141.858 103.279 142.191C103.279 142.506 103.057 142.764 102.743 142.764C102.41 142.746 102.207 142.506 102.207 142.191ZM89.2266 142.191V141.304H88.8383V141.526C88.7088 141.359 88.5239 141.267 88.2836 141.267C87.7843 141.267 87.396 141.655 87.396 142.191C87.396 142.727 87.7843 143.116 88.2836 143.116C88.5425 143.116 88.7274 143.023 88.8383 142.857V143.079H89.2266V142.191ZM87.7843 142.191C87.7843 141.877 87.9877 141.618 88.3205 141.618C88.6349 141.618 88.8568 141.858 88.8568 142.191C88.8568 142.506 88.6349 142.764 88.3205 142.764C87.9877 142.746 87.7843 142.506 87.7843 142.191Z" fill="#0D0D0D"/>
<path d="M90.9834 127.824H96.8078V138.29H90.9834V127.824Z" fill="#FF5F00"/>
<path d="M91.3532 133.057C91.3532 130.931 92.3516 129.044 93.8863 127.824C92.7585 126.937 91.3348 126.4 89.7816 126.4C86.1019 126.4 83.125 129.377 83.125 133.057C83.125 136.736 86.1019 139.713 89.7815 139.713C91.3347 139.713 92.7584 139.177 93.8863 138.29C92.3516 137.088 91.3532 135.183 91.3532 133.057Z" fill="#EB001B"/>
<path d="M104.667 133.057C104.667 136.736 101.69 139.713 98.0101 139.713C96.4569 139.713 95.0332 139.177 93.9053 138.29C95.4584 137.069 96.4384 135.183 96.4384 133.057C96.4384 130.931 95.4399 129.044 93.9053 127.824C95.0331 126.937 96.4569 126.4 98.0101 126.4C101.69 126.4 104.667 129.396 104.667 133.057Z" fill="#F79E1B"/>
</g>
<g clip-path="url(#clip3_286_4949)">
<path d="M123.839 133.512C123.827 134.481 124.704 135.023 125.364 135.345C126.043 135.675 126.27 135.887 126.268 136.182C126.263 136.634 125.726 136.833 125.225 136.841C124.349 136.854 123.84 136.605 123.436 136.416L123.12 137.891C123.526 138.078 124.278 138.241 125.058 138.249C126.888 138.249 128.085 137.345 128.091 135.945C128.098 134.167 125.633 134.069 125.65 133.275C125.655 133.034 125.885 132.777 126.389 132.711C126.638 132.678 127.326 132.653 128.107 133.012L128.413 131.585C127.993 131.432 127.454 131.286 126.783 131.286C125.06 131.286 123.849 132.201 123.839 133.512ZM131.356 131.409C131.022 131.409 130.74 131.603 130.614 131.903L128 138.144H129.829L130.193 137.138H132.427L132.638 138.144H134.25L132.844 131.409H131.356ZM131.612 133.228L132.139 135.757H130.694L131.612 133.228ZM121.622 131.409L120.181 138.144H121.923L123.364 131.408L121.622 131.409ZM119.044 131.409L117.231 135.993L116.497 132.095C116.411 131.66 116.071 131.409 115.694 131.409H112.729L112.688 131.604C113.296 131.736 113.988 131.949 114.407 132.177C114.663 132.316 114.736 132.438 114.82 132.769L116.21 138.144H118.051L120.874 131.409L119.044 131.409Z" fill="url(#paint0_linear_286_4949)"/>
</g>
</g>
<defs>
<filter id="filter0_dd_286_4949" x="35" y="0" width="226" height="179" filterUnits="userSpaceOnUse" color-interpolation-filters="sRGB">
<feFlood flood-opacity="0" result="BackgroundImageFix"/>
<feColorMatrix in="SourceAlpha" type="matrix" values="0 0 0 0 0 0 0 0 0 0 0 0 0 0 0 0 0 0 127 0" result="hardAlpha"/>
<feMorphology radius="1" operator="dilate" in="SourceAlpha" result="effect1_dropShadow_286_4949"/>
<feOffset/>
<feComposite in2="hardAlpha" operator="out"/>
<feColorMatrix type="matrix" values="0 0 0 0 0 0 0 0 0 0 0 0 0 0 0 0 0 0 0.08 0"/>
<feBlend mode="normal" in2="BackgroundImageFix" result="effect1_dropShadow_286_4949"/>
<feColorMatrix in="SourceAlpha" type="matrix" values="0 0 0 0 0 0 0 0 0 0 0 0 0 0 0 0 0 0 127 0" result="hardAlpha"/>
<feMorphology radius="2" operator="erode" in="SourceAlpha" result="effect2_dropShadow_286_4949"/>
<feOffset dy="5"/>
<feGaussianBlur stdDeviation="5"/>
<feComposite in2="hardAlpha" operator="out"/>
<feColorMatrix type="matrix" values="0 0 0 0 0 0 0 0 0 0 0 0 0 0 0 0 0 0 0.15 0"/>
<feBlend mode="normal" in2="effect1_dropShadow_286_4949" result="effect2_dropShadow_286_4949"/>
<feBlend mode="normal" in="SourceGraphic" in2="effect2_dropShadow_286_4949" result="shape"/>
</filter>
<filter id="filter1_dd_286_4949" x="0" y="117" width="158.25" height="45.5625" filterUnits="userSpaceOnUse" color-interpolation-filters="sRGB">
<feFlood flood-opacity="0" result="BackgroundImageFix"/>
<feColorMatrix in="SourceAlpha" type="matrix" values="0 0 0 0 0 0 0 0 0 0 0 0 0 0 0 0 0 0 127 0" result="hardAlpha"/>
<feMorphology radius="1" operator="dilate" in="SourceAlpha" result="effect1_dropShadow_286_4949"/>
<feOffset/>
<feComposite in2="hardAlpha" operator="out"/>
<feColorMatrix type="matrix" values="0 0 0 0 0 0 0 0 0 0 0 0 0 0 0 0 0 0 0.08 0"/>
<feBlend mode="normal" in2="BackgroundImageFix" result="effect1_dropShadow_286_4949"/>
<feColorMatrix in="SourceAlpha" type="matrix" values="0 0 0 0 0 0 0 0 0 0 0 0 0 0 0 0 0 0 127 0" result="hardAlpha"/>
<feMorphology radius="2" operator="erode" in="SourceAlpha" result="effect2_dropShadow_286_4949"/>
<feOffset dy="5"/>
<feGaussianBlur stdDeviation="5"/>
<feComposite in2="hardAlpha" operator="out"/>
<feColorMatrix type="matrix" values="0 0 0 0 0 0 0 0 0 0 0 0 0 0 0 0 0 0 0.15 0"/>
<feBlend mode="normal" in2="effect1_dropShadow_286_4949" result="effect2_dropShadow_286_4949"/>
<feBlend mode="normal" in="SourceGraphic" in2="effect2_dropShadow_286_4949" result="shape"/>
</filter>
<linearGradient id="paint0_linear_286_4949" x1="1104" y1="152.216" x2="1124.16" y2="-562.894" gradientUnits="userSpaceOnUse">
<stop stop-color="#222357"/>
<stop offset="1" stop-color="#254AA5"/>
</linearGradient>
<clipPath id="clip0_286_4949">
<rect width="21.5625" height="8.59131" fill="white" transform="translate(24 130.485)"/>
</clipPath>
<clipPath id="clip1_286_4949">
<rect width="21.5625" height="21.5625" fill="white" transform="translate(53.5625 124)"/>
</clipPath>
<clipPath id="clip2_286_4949">
<rect width="21.5625" height="16.7615" fill="white" transform="translate(83.125 126.4)"/>
</clipPath>
<clipPath id="clip3_286_4949">
<rect width="21.5625" height="6.99097" fill="white" transform="translate(112.688 131.286)"/>
</clipPath>
</defs>
</svg>
