<svg width="25" height="25" viewBox="0 0 25 25" fill="none" xmlns="http://www.w3.org/2000/svg">
<path d="M12.377 16.2256V21.2256" stroke="#0D0D0D" stroke-width="1.5" stroke-linecap="round" stroke-linejoin="round"/>
<path d="M8.37695 5.51742C8.37695 5.24641 8.37695 5.11091 8.39007 4.99694C8.49635 4.07351 9.22484 3.34502 10.1483 3.23874C10.2622 3.22562 10.3978 3.22562 10.6688 3.22562H14.0852C14.3562 3.22562 14.4917 3.22562 14.6057 3.23874C15.5291 3.34502 16.2576 4.07351 16.3639 4.99694C16.377 5.11091 16.377 5.24641 16.377 5.51742C16.377 5.60447 16.377 5.64799 16.3737 5.68826C16.3478 6.00843 16.1697 6.29666 15.8949 6.46302C15.8604 6.48394 15.8214 6.50341 15.7436 6.54234L15.4825 6.67288C15.0791 6.87459 14.8773 6.97545 14.7451 7.13126C14.637 7.25848 14.5626 7.41071 14.5285 7.57408C14.4867 7.77416 14.5309 7.9953 14.6194 8.43759L15.377 12.2256H15.7103C16.3303 12.2256 16.6403 12.2256 16.8946 12.2937C17.5848 12.4787 18.1239 13.0178 18.3089 13.708C18.377 13.9623 18.377 14.2723 18.377 14.8923C18.377 15.2023 18.377 15.3573 18.3429 15.4844C18.2505 15.8295 17.9809 16.0991 17.6358 16.1915C17.5087 16.2256 17.3537 16.2256 17.0437 16.2256H7.71028C7.40029 16.2256 7.2453 16.2256 7.11813 16.1915C6.77304 16.0991 6.50349 15.8295 6.41102 15.4844C6.37695 15.3573 6.37695 15.2023 6.37695 14.8923C6.37695 14.2723 6.37695 13.9623 6.4451 13.708C6.63003 13.0178 7.16913 12.4787 7.85931 12.2937C8.11364 12.2256 8.42364 12.2256 9.04362 12.2256H9.37695L10.1346 8.43759C10.223 7.9953 10.2672 7.77416 10.2255 7.57408C10.1914 7.41071 10.1169 7.25848 10.0089 7.13126C9.8766 6.97545 9.67489 6.87459 9.27147 6.67288L9.01039 6.54234C8.93253 6.50341 8.8936 6.48394 8.85903 6.46302C8.58426 6.29666 8.40612 6.00843 8.38021 5.68826C8.37695 5.64799 8.37695 5.60447 8.37695 5.51742Z" stroke="#0D0D0D" stroke-width="1.5" stroke-linecap="round" stroke-linejoin="round"/>
</svg>
