<svg width="28" height="26" viewBox="0 0 28 26" fill="none" xmlns="http://www.w3.org/2000/svg">
            <path d="M17.3801 22.5431L17.3801 22.5431L14.0552 18.7628C12.4092 16.8914 12.2143 16.069 12.3226 15.8917L13.5705 14.8867L18.6284 10.9305C19.0362 10.6115 19.1082 10.0223 18.7892 9.61449C18.4702 9.20667 17.881 9.13465 17.4732 9.45365L12.41 13.4139L10.8874 14.6567C10.5319 15.0381 10.3052 15.6905 10.5525 16.6182C10.7832 17.484 11.4303 18.6283 12.8083 20.1992L12.2994 21.2028C11.9707 21.6597 11.6655 22.0839 11.3846 22.3746C11.1056 22.6635 10.5985 23.0882 9.89217 22.9476C9.19517 22.809 8.8824 22.2328 8.72754 21.863C8.57026 21.4874 8.43705 20.978 8.29253 20.4254L7.66565 18.0299C7.31745 16.6993 7.19721 16.3168 6.97063 16.0353C6.94204 15.9998 6.91225 15.9654 6.88136 15.9323C6.64215 15.6762 6.30432 15.5186 5.06687 15.0226L4.99909 14.9954C3.7796 14.5066 2.77508 14.104 2.07248 13.7084C1.3918 13.3251 0.656752 12.768 0.572191 11.8279C0.559049 11.6818 0.559274 11.5347 0.572864 11.3887C0.660317 10.4488 1.39719 9.89395 2.07907 9.51296C2.7829 9.1197 3.78867 8.72041 5.00966 8.23568L19.9898 2.28815L19.9898 2.28814C21.5221 1.67973 22.775 1.18224 23.7595 0.955428C24.7633 0.724184 25.8002 0.699703 26.6127 1.45126C27.4091 2.18799 27.5044 3.22584 27.4052 4.27184C27.3068 5.30963 26.983 6.65927 26.5836 8.32412L23.559 20.9329L23.559 20.933C23.3045 21.9943 23.0896 22.8901 22.8319 23.5402C22.5716 24.1968 22.1541 24.9021 21.3106 25.1251C20.4567 25.3509 19.7511 24.93 19.2149 24.4762C18.6881 24.0304 18.0874 23.3473 17.3801 22.5431Z" fill="#0D0D0D"/>
          </svg>