<svg width="26" height="26" viewBox="0 0 26 26" fill="none" xmlns="http://www.w3.org/2000/svg">
            <path fillRule="evenodd" clipRule="evenodd" d="M12.9285 0.1875H13.0715C15.8098 0.187483 17.9607 0.187471 19.64 0.413242C21.3608 0.644602 22.7261 1.12839 23.7989 2.20114C24.8716 3.27389 25.3554 4.63921 25.5868 6.36003C25.8125 8.03929 25.8125 10.1902 25.8125 12.9285V13.0715C25.8125 15.8099 25.8125 17.9607 25.5868 19.64C25.3554 21.3608 24.8716 22.7261 23.7989 23.7989C22.7261 24.8716 21.3608 25.3554 19.64 25.5868C17.9607 25.8125 15.8098 25.8125 13.0715 25.8125H12.9285C10.1901 25.8125 8.03929 25.8125 6.36003 25.5868C4.63921 25.3554 3.27389 24.8716 2.20114 23.7989C1.12839 22.7261 0.644601 21.3608 0.413242 19.64C0.187471 17.9607 0.187484 15.8099 0.1875 13.0715V13.0715L0.1875 12.9285V12.9285C0.187484 10.1901 0.187471 8.0393 0.413242 6.36003C0.644601 4.63921 1.12839 3.27389 2.20114 2.20114C3.27389 1.12839 4.63921 0.644602 6.36003 0.413242C8.03929 0.187471 10.1902 0.187483 12.9285 0.1875ZM15.8846 6.03572C15.8846 5.39467 15.368 4.875 14.7308 4.875C14.0935 4.875 13.5769 5.39467 13.5769 6.03572V15.9018C13.5769 17.5044 12.2854 18.8036 10.6923 18.8036C9.09918 18.8036 7.80769 17.5044 7.80769 15.9018C7.80769 14.2992 9.09918 13 10.6923 13C10.8334 13 10.9714 13.0101 11.1058 13.0294C11.7367 13.1202 12.3212 12.6794 12.4115 12.0448C12.5017 11.4102 12.0634 10.8222 11.4326 10.7314C11.1902 10.6965 10.943 10.6786 10.6923 10.6786C7.82468 10.6786 5.5 13.0171 5.5 15.9018C5.5 18.7865 7.82468 21.125 10.6923 21.125C13.5599 21.125 15.8846 18.7865 15.8846 15.9018V10.1239C16.8843 10.8272 18.1153 11.2589 19.3462 11.2589C19.9834 11.2589 20.5 10.7393 20.5 10.0982C20.5 9.45717 19.9834 8.9375 19.3462 8.9375C18.5263 8.9375 17.6292 8.59507 16.9417 8.01746C16.2552 7.44067 15.8846 6.72707 15.8846 6.03572Z" fill="#0D0D0D"/>
          </svg>