<svg width="30" height="30" viewBox="0 0 30 30" fill="none" xmlns="http://www.w3.org/2000/svg">
            <path d="M14.0727 10.2971C13.9309 7.04502 16.5718 4.0625 20.0001 4.0625C21.3432 4.0625 22.5837 4.50943 23.5786 5.26171L27.3618 4.69775C27.709 4.64599 28.0561 4.79254 28.2611 5.07751C28.4661 5.36248 28.4947 5.7381 28.3353 6.05084L25.9182 10.7913C25.5055 19.2261 18.5368 25.9375 10.0001 25.9375C7.13151 25.9375 4.40236 25.3085 2.03063 23.9365C1.67855 23.7328 1.49797 23.3254 1.58355 22.9277C1.66913 22.5301 2.00136 22.233 2.40605 22.1922C3.28436 22.1037 4.6116 21.8508 5.69488 21.4563C6.24102 21.2574 6.66728 21.043 6.93942 20.8344C6.96587 20.8141 6.98957 20.7949 7.01078 20.7769C3.21775 16.6047 1.88506 10.2145 3.45939 4.86677C3.56315 4.51431 3.86325 4.25495 4.22702 4.20333C4.5908 4.15171 4.9512 4.31736 5.14891 4.62704C7.16113 7.77881 10.4579 10.1189 14.0727 10.2971Z" fill="#0D0D0D"/>
          </svg>