<svg width="28" height="28" viewBox="0 0 28 28" fill="none" xmlns="http://www.w3.org/2000/svg">
            <path fillRule="evenodd" clipRule="evenodd" d="M14 0.562479C6.57869 0.562479 0.562521 6.57865 0.562521 14C0.562521 15.8511 0.937361 17.6171 1.61617 19.2243C1.79424 19.6459 1.91428 19.9308 1.99446 20.1498C2.07624 20.3731 2.08773 20.4539 2.08917 20.4747C2.09729 20.5921 2.06759 20.7517 1.8649 21.5092L0.594379 26.2577C0.507838 26.5811 0.600358 26.9261 0.837109 27.1629C1.07386 27.3996 1.4189 27.4922 1.74234 27.4056L6.4908 26.1351C7.24834 25.9324 7.40794 25.9027 7.52532 25.9108C7.54615 25.9123 7.62693 25.9238 7.85024 26.0055C8.06917 26.0857 8.35408 26.2058 8.7757 26.3838C10.3829 27.0626 12.1489 27.4375 14 27.4375C21.4213 27.4375 27.4375 21.4213 27.4375 14C27.4375 6.57865 21.4213 0.562479 14 0.562479ZM10.2161 6.81251L10.1003 6.81238C9.50073 6.81137 8.94761 6.81043 8.40364 7.0589C8.00845 7.23942 7.67218 7.54611 7.42732 7.85242C7.18247 8.15874 6.95737 8.5543 6.86833 8.97955C6.74628 9.56248 6.84694 10.006 6.95461 10.4805L6.96948 10.5461C7.51262 12.9515 8.7824 15.3101 10.7359 17.2636C12.6894 19.2171 15.048 20.4869 17.4534 21.03L17.519 21.0449C17.9935 21.1525 18.437 21.2532 19.0199 21.1311C19.4452 21.0421 19.8407 20.817 20.1471 20.5722C20.4534 20.3273 20.7601 19.991 20.9406 19.5958C21.189 19.0519 21.1881 18.4988 21.1871 17.8992L21.187 17.7834C21.187 17.5079 21.1785 17.044 20.9998 16.6152C20.7863 16.103 20.3466 15.6808 19.6573 15.5728L19.6501 15.5717C18.7957 15.4378 18.1464 15.336 17.687 15.2693C17.4572 15.2358 17.2664 15.2099 17.1171 15.193C16.9944 15.179 16.8256 15.1615 16.6844 15.1698C16.0724 15.2056 15.5857 15.4538 15.2087 15.7122C14.9688 15.8766 14.7081 16.0968 14.5031 16.2699C14.4226 16.3379 14.3507 16.3987 14.292 16.4459L14.0441 16.6455C13.7497 16.8825 13.6025 17.0011 13.4226 16.9987C13.2427 16.9964 13.106 16.8804 12.8328 16.6485C12.5692 16.4248 12.3119 16.1879 12.0617 15.9377C11.8116 15.6876 11.5747 15.4302 11.351 15.1667C11.119 14.8934 11.0031 14.7568 11.0007 14.5769C10.9984 14.397 11.1169 14.2498 11.354 13.9554L11.5536 13.7075C11.6008 13.6488 11.6616 13.5769 11.7296 13.4964C11.9027 13.2913 12.1229 13.0307 12.2873 12.7907C12.5457 12.4138 12.7939 11.927 12.8297 11.3151C12.838 11.1739 12.8204 11.0051 12.8065 10.8824C12.7896 10.7331 12.7636 10.5423 12.7302 10.3124C12.6635 9.85308 12.5617 9.20375 12.4278 8.34934L12.4267 8.34219C12.3186 7.65289 11.8965 7.21314 11.3843 6.99969C10.9555 6.82101 10.4916 6.81251 10.2161 6.81251Z" fill="#0D0D0D"/>
          </svg>