<svg width="28" height="24" viewBox="0 0 28 24" fill="none" xmlns="http://www.w3.org/2000/svg">
            <path fillRule="evenodd" clipRule="evenodd" d="M7.37108 1.08967C9.44481 0.666952 11.6769 0.4375 14.0001 0.4375C16.3234 0.4375 18.5555 0.666952 20.6292 1.08967L20.7883 1.12207C23.1566 1.60411 24.7346 1.9253 26.0944 3.67365C27.4396 5.40323 27.4389 7.40899 27.4377 10.5155V10.5155V13.4845V13.4845C27.4389 16.591 27.4396 18.5968 26.0944 20.3264C24.7346 22.0747 23.1566 22.3959 20.7883 22.8779L20.6292 22.9103C18.5555 23.333 16.3234 23.5625 14.0001 23.5625C11.6769 23.5625 9.44481 23.333 7.37108 22.9103L7.21198 22.8779C4.84369 22.3959 3.26569 22.0747 1.90587 20.3264C0.56065 18.5968 0.561402 16.591 0.562568 13.4845L0.562568 10.5155C0.561402 7.409 0.56065 5.40323 1.90587 3.67365C3.26569 1.9253 4.84369 1.60411 7.21198 1.12207L7.37108 1.08967ZM13.1183 7.31531C13.7665 7.58733 14.5538 8.02704 15.5164 8.56466C15.6432 8.63543 15.7705 8.70572 15.898 8.7761C16.5272 9.12348 17.1601 9.47288 17.7437 9.89254C18.2682 10.2697 18.7659 10.7371 18.9306 11.4186C19.0231 11.8013 19.0231 12.1987 18.9306 12.5814C18.7659 13.2629 18.2682 13.7303 17.7437 14.1075C17.1601 14.5271 16.5271 14.8766 15.8979 15.224C15.7704 15.2943 15.6431 15.3646 15.5165 15.4353C14.5538 15.973 13.7665 16.4127 13.1183 16.6847C12.0646 17.1269 10.9471 17.1627 10.0288 16.4102C9.45395 15.9393 9.25076 15.2649 9.16162 14.5854C8.94617 12.9429 8.94608 11.0577 9.16162 9.41465C9.25076 8.73508 9.45395 8.06073 10.0288 7.58976C10.9471 6.83729 12.0646 6.87307 13.1183 7.31531Z" fill="#0D0D0D"/>
          </svg>